<svg xmlns="http://www.w3.org/2000/svg" width="56" height="56" viewBox="0 0 56 56">
  <path fill="#131516" fill-rule="evenodd" d="M48,19.4226804 C48,19.7525773 47.8396794,20.1237113 47.5991984,20.371134 L28.9218437,39.5876289 C28.6813627,39.8350515 28.3206413,40 28,40 C27.6793587,40 27.3186373,39.8350515 27.0781563,39.5876289 L8.4008016,20.371134 C8.16032064,20.1237113 8,19.7525773 8,19.4226804 C8,19.0927835 8.16032064,18.7216495 8.4008016,18.4742268 L10.4048096,16.4123711 C10.6452906,16.1649485 10.9659319,16 11.3266533,16 C11.6472946,16 12.008016,16.1649485 12.248497,16.4123711 L28,32.6185567 L43.751503,16.4123711 C43.991984,16.1649485 44.3527054,16 44.6733467,16 C44.993988,16 45.3547094,16.1649485 45.5951904,16.4123711 L47.5991984,18.4742268 C47.8396794,18.7216495 48,19.0927835 48,19.4226804 Z"/>
</svg>
