<svg xmlns="http://www.w3.org/2000/svg" width="56" height="56" viewBox="0 0 56 56">
  <path fill="#131516" fill-rule="evenodd" d="M40,11.3266533 C40,11.6472946 39.8350515,12.008016 39.5876289,12.248497 L23.3814433,28 L39.5876289,43.751503 C39.8350515,43.991984 40,44.3527054 40,44.6733467 C40,44.993988 39.8350515,45.3547094 39.5876289,45.5951904 L37.5257732,47.5991984 C37.2783505,47.8396794 36.9072165,48 36.5773196,48 C36.2474227,48 35.8762887,47.8396794 35.628866,47.5991984 L16.4123711,28.9218437 C16.1649485,28.6813627 16,28.3206413 16,28 C16,27.6793587 16.1649485,27.3186373 16.4123711,27.0781563 L35.628866,8.4008016 C35.8762887,8.16032064 36.2474227,8 36.5773196,8 C36.9072165,8 37.2783505,8.16032064 37.5257732,8.4008016 L39.5876289,10.4048096 C39.8350515,10.6452906 40,10.9659319 40,11.3266533 Z"/>
</svg>
