<svg xmlns="http://www.w3.org/2000/svg" width="56" height="56" viewBox="0 0 56 56">
  <path fill="#131516" fill-rule="evenodd" d="M40,28 C40,28.3206413 39.8350515,28.6813627 39.5876289,28.9218437 L20.371134,47.5991984 C20.1237113,47.8396794 19.7525773,48 19.4226804,48 C19.0927835,48 18.7216495,47.8396794 18.4742268,47.5991984 L16.4123711,45.5951904 C16.1649485,45.3547094 16,45.0340681 16,44.6733467 C16,44.3527054 16.1649485,43.991984 16.4123711,43.751503 L32.6185567,28 L16.4123711,12.248497 C16.1649485,12.008016 16,11.6472946 16,11.3266533 C16,11.006012 16.1649485,10.6452906 16.4123711,10.4048096 L18.4742268,8.4008016 C18.7216495,8.16032064 19.0927835,8 19.4226804,8 C19.7525773,8 20.1237113,8.16032064 20.371134,8.4008016 L39.5876289,27.0781563 C39.8350515,27.3186373 40,27.6793587 40,28 Z"/>
</svg>
