<svg xmlns="http://www.w3.org/2000/svg" width="56" height="56" viewBox="0 0 56 56">
  <path fill="#131516" fill-rule="evenodd" d="M48,36.5773196 C48,36.9072165 47.8396794,37.2783505 47.5991984,37.5257732 L45.5951904,39.5876289 C45.3547094,39.8350515 45.0340681,40 44.6733467,40 C44.3527054,40 43.991984,39.8350515 43.751503,39.5876289 L28,23.3814433 L12.248497,39.5876289 C12.008016,39.8350515 11.6472946,40 11.3266533,40 C11.006012,40 10.6452906,39.8350515 10.4048096,39.5876289 L8.4008016,37.5257732 C8.16032064,37.2783505 8,36.9072165 8,36.5773196 C8,36.2474227 8.16032064,35.8762887 8.4008016,35.628866 L27.0781563,16.4123711 C27.3186373,16.1649485 27.6793587,16 28,16 C28.3206413,16 28.6813627,16.1649485 28.9218437,16.4123711 L47.5991984,35.628866 C47.8396794,35.8762887 48,36.2474227 48,36.5773196 Z"/>
</svg>
