<svg xmlns="http://www.w3.org/2000/svg" xmlns:xlink="http://www.w3.org/1999/xlink" width="56" height="56" viewBox="0 0 56 56">
  <defs>
    <path id="arrow-right-a" d="M30.9929695,44.3208152 L29.0110479,46.3542478 C28.1718558,47.2152507 26.8148644,47.2152507 25.9845999,46.3542478 L8.62939404,28.557133 C7.79020199,27.6961301 7.79020199,26.3038699 8.62939404,25.4520266 L25.9845999,7.64575223 C26.823792,6.78474926 28.1807834,6.78474926 29.0110479,7.64575223 L30.9929695,9.6791848 C31.8410892,10.5493474 31.823234,11.9690863 30.9572592,12.8209297 L20,24 L45.857382,24 C47.0447495,24 48,24.7817724 48,26 L48,28 C48,29.2182276 47.0447495,30 45.857382,30 L20,30 L30.9572592,41.1790703 C31.8321616,42.0309137 31.8500167,43.4506526 30.9929695,44.3208152 Z"/>
  </defs>
  <use fill="#131516" fill-rule="evenodd" transform="matrix(-1 0 0 1 56 0)" xlink:href="#arrow-right-a"/>
</svg>
