<svg xmlns="http://www.w3.org/2000/svg" xmlns:xlink="http://www.w3.org/1999/xlink" width="56" height="56" viewBox="0 0 56 56">
  <defs>
    <path id="check-a" d="M48,18.8585859 C48,19.489899 47.7419355,20.1212121 47.2774194,20.5757576 L25.083871,42.2929293 C24.6193548,42.7474747 23.9741935,43 23.3290323,43 C22.683871,43 22.0387097,42.7474747 21.5741935,42.2929293 L8.72258065,29.7171717 C8.25806452,29.2626263 8,28.6313131 8,28 C8,27.3686869 8.25806452,26.7373737 8.72258065,26.2828283 L12.2322581,22.8484848 C12.6967742,22.3939394 13.3419355,22.1414141 13.9870968,22.1414141 C14.6322581,22.1414141 15.2774194,22.3939394 15.7419355,22.8484848 L23.3290323,30.2979798 L40.2580645,13.7070707 C40.7225806,13.2525253 41.3677419,13 42.0129032,13 C42.6580645,13 43.3032258,13.2525253 43.7677419,13.7070707 L47.2774194,17.1414141 C47.7419355,17.5959596 48,18.2272727 48,18.8585859 Z"/>
  </defs>
  <use fill="#131516" fill-rule="evenodd" xlink:href="#check-a"/>
</svg>
