<svg xmlns="http://www.w3.org/2000/svg" xmlns:xlink="http://www.w3.org/1999/xlink" width="56" height="56" viewBox="0 0 56 56">
  <defs>
    <path id="close-bold-a" d="M48,40.1885522 C48,41.030303 47.6632997,41.8720539 47.0572391,42.4781145 L42.4781145,47.0572391 C41.8720539,47.6632997 41.030303,48 40.1885522,48 C39.3468013,48 38.5050505,47.6632997 37.8989899,47.0572391 L28,37.1582492 L18.1010101,47.0572391 C17.4949495,47.6632997 16.6531987,48 15.8114478,48 C14.969697,48 14.1279461,47.6632997 13.5218855,47.0572391 L8.94276094,42.4781145 C8.33670034,41.8720539 8,41.030303 8,40.1885522 C8,39.3468013 8.33670034,38.5050505 8.94276094,37.8989899 L18.8417508,28 L8.94276094,18.1010101 C8.33670034,17.4949495 8,16.6531987 8,15.8114478 C8,14.969697 8.33670034,14.1279461 8.94276094,13.5218855 L13.5218855,8.94276094 C14.1279461,8.33670034 14.969697,8 15.8114478,8 C16.6531987,8 17.4949495,8.33670034 18.1010101,8.94276094 L28,18.8417508 L37.8989899,8.94276094 C38.5050505,8.33670034 39.3468013,8 40.1885522,8 C41.030303,8 41.8720539,8.33670034 42.4781145,8.94276094 L47.0572391,13.5218855 C47.6632997,14.1279461 48,14.969697 48,15.8114478 C48,16.6531987 47.6632997,17.4949495 47.0572391,18.1010101 L37.1582492,28 L47.0572391,37.8989899 C47.6632997,38.5050505 48,39.3468013 48,40.1885522 Z"/>
  </defs>
  <use fill="#131516" fill-rule="evenodd" xlink:href="#close-bold-a"/>
</svg>
