<svg xmlns="http://www.w3.org/2000/svg" width="56" height="56" viewBox="0 0 56 56">
  <path fill="#131516" fill-rule="evenodd" d="M28,25.9396539 L45.5129422,8.42671166 C46.0818911,7.85776278 47.0043395,7.85776278 47.5732883,8.42671166 C48.1422372,8.99566053 48.1422372,9.91810892 47.5732883,10.4870578 L30.0603461,28 L47.5732883,45.5129422 C48.1422372,46.0818911 48.1422372,47.0043395 47.5732883,47.5732883 C47.0043395,48.1422372 46.0818911,48.1422372 45.5129422,47.5732883 L28,30.0603461 L10.4870578,47.5732883 C9.91810892,48.1422372 8.99566053,48.1422372 8.42671166,47.5732883 C7.85776278,47.0043395 7.85776278,46.0818911 8.42671166,45.5129422 L25.9396539,28 L8.42671166,10.4870578 C7.85776278,9.91810892 7.85776278,8.99566053 8.42671166,8.42671166 C8.99566053,7.85776278 9.91810892,7.85776278 10.4870578,8.42671166 L28,25.9396539 Z"/>
</svg>
