<svg xmlns="http://www.w3.org/2000/svg" width="56" height="56" viewBox="0 0 56 56">
  <g fill="none" fill-rule="evenodd">
    <path fill="#131516" d="M42.2857143,16 L48,16 L48,39.2 C48,42.40305 45.4414286,45 42.2857143,45 L8,45 L8,16 L13.7142857,16 L13.7142857,18.1428571 C13.7142857,20.5064286 15.6364286,22.4285714 18,22.4285714 C20.3635714,22.4285714 22.2857143,20.5064286 22.2857143,18.1428571 L22.2857143,16 L33.7142857,16 L33.7142857,18.1428571 C33.7142857,20.5064286 35.6364286,22.4285714 38,22.4285714 C40.3635714,22.4285714 42.2857143,20.5064286 42.2857143,18.1428571 L42.2857143,16 Z"/>
    <path fill="#FFF" d="M22 27L22 30 23 30 23 40C24.4726667 40 26 38.5778571 26 37L26 27 22 27zM30 27L30 30 31 30 31 40C32.4726667 40 34 38.5778571 34 37L34 27 30 27z"/>
    <path fill="#131516" d="M18 10C19.104 10 20 10.7466667 20 11.6666667L20 18.3333333C20 19.2533333 19.104 20 18 20 16.896 20 16 19.2533333 16 18.3333333L16 11.6666667C16 10.7466667 16.896 10 18 10M38 10C39.104 10 40 10.7466667 40 11.6666667L40 18.3333333C40 19.2533333 39.104 20 38 20 36.896 20 36 19.2533333 36 18.3333333L36 11.6666667C36 10.7466667 36.896 10 38 10"/>
  </g>
</svg>
