<svg xmlns="http://www.w3.org/2000/svg" xmlns:xlink="http://www.w3.org/1999/xlink" width="56" height="56" viewBox="0 0 56 56">
  <defs>
    <path id="envelope-a" d="M44.9230769,40.16 L44.9230769,22.3225806 C44.4603365,22.88 43.9535256,23.3909677 43.4026442,23.8554839 C40.2516026,26.4103226 37.0785256,29.0116129 34.015625,31.7058065 C32.3629808,33.1690323 30.3137019,34.9574194 28.0220353,34.9574194 L27.9779647,34.9574194 C25.6862981,34.9574194 23.6370192,33.1690323 21.984375,31.7058065 C18.9214744,29.0116129 15.7483974,26.4103226 12.5973558,23.8554839 C12.0464744,23.3909677 11.5396635,22.88 11.0769231,22.3225806 L11.0769231,40.16 C11.0769231,40.5548387 11.4074519,40.9032258 11.7820513,40.9032258 L44.2179487,40.9032258 C44.5925481,40.9032258 44.9230769,40.5548387 44.9230769,40.16 Z M44.9154633,16.6733871 C44.9154633,16.1021505 45.047645,15.0967742 44.2104937,15.0967742 L11.7818927,15.0967742 C11.4073776,15.0967742 11.0769231,15.4395161 11.0769231,15.827957 C11.0769231,18.4327957 12.3326502,20.6948925 14.3153771,22.3172043 C17.2674373,24.7163978 20.2194974,27.1384409 23.1495273,29.5604839 C24.3171331,30.5430108 26.4320419,32.6451613 27.9741629,32.6451613 L28.0182235,32.6451613 C29.5603444,32.6451613 31.6752532,30.5430108 32.8428591,29.5604839 C35.7728889,27.1384409 38.7249491,24.7163978 41.6770092,22.3172043 C43.1089787,21.1518817 44.9154633,18.6155914 44.9154633,16.6733871 Z M48,15.6363636 L48,40.3636364 C48,42.3636364 46.3928571,44 44.4285714,44 L11.5714286,44 C9.60714286,44 8,42.3636364 8,40.3636364 L8,15.6363636 C8,13.6363636 9.60714286,12 11.5714286,12 L44.4285714,12 C46.3928571,12 48,13.6363636 48,15.6363636 Z"/>
  </defs>
  <use fill="#131516" fill-rule="evenodd" xlink:href="#envelope-a"/>
</svg>
