<svg xmlns="http://www.w3.org/2000/svg" width="56" height="56" viewBox="0 0 56 56">
  <path fill="#131516" fill-rule="evenodd" d="M39,33 L39,39.6590909 C39,43.1598011 36.1598011,46 32.6590909,46 L14.3409091,46 C10.8401989,46 8,43.1598011 8,39.6590909 L8,21.3409091 C8,17.8401989 10.8401989,15 14.3409091,15 L30,15 C30.3963068,15 31,15.3082386 31,15.7045455 L31,17 C31,17.3963068 30.3963068,18 30,18 L14.3409091,18 C12.4034091,18 11,19.4034091 11,21.3409091 L11,39.6590909 C11,41.5965909 12.4034091,43 14.3409091,43 L32.6590909,43 C34.5965909,43 36,41.5965909 36,39.6590909 L36,33 C36,32.6036932 36.6036932,32 37,32 L38,32 C38.3963068,32 39,32.6036932 39,33 Z M48,13.4453478 L48,25.0081301 C48,25.7985547 47.3450768,26.4534779 46.5546522,26.4534779 C46.1707317,26.4534779 45.8093948,26.295393 45.5383921,26.0243902 L41.5636856,22.0496838 L26.8392051,36.7741644 C26.7037037,36.9096658 26.5004517,37 26.3197832,37 C26.1391147,37 25.9358627,36.9096658 25.8003613,36.7741644 L23.2258356,34.1996387 C23.0903342,34.0641373 23,33.8608853 23,33.6802168 C23,33.4995483 23.0903342,33.2962963 23.2258356,33.1607949 L37.9503162,18.4363144 L33.9756098,14.4616079 C33.704607,14.1906052 33.5465221,13.8292683 33.5465221,13.4453478 C33.5465221,12.6549232 34.2014453,12 34.9918699,12 L46.5546522,12 C47.3450768,12 48,12.6549232 48,13.4453478 Z"/>
</svg>
