<svg xmlns="http://www.w3.org/2000/svg" xmlns:xlink="http://www.w3.org/1999/xlink" width="56" height="56" viewBox="0 0 56 56">
  <defs>
    <path id="menu-a" d="M11,37 L45,37 C46.6568542,37 48,38.3431458 48,40 C48,41.6568542 46.6568542,43 45,43 L11,43 C9.34314575,43 8,41.6568542 8,40 C8,38.3431458 9.34314575,37 11,37 Z M11,25 L45,25 C46.6568542,25 48,26.3431458 48,28 C48,29.6568542 46.6568542,31 45,31 L11,31 C9.34314575,31 8,29.6568542 8,28 C8,26.3431458 9.34314575,25 11,25 Z M11,13 L45,13 C46.6568542,13 48,14.3431458 48,16 C48,17.6568542 46.6568542,19 45,19 L11,19 C9.34314575,19 8,17.6568542 8,16 C8,14.3431458 9.34314575,13 11,13 Z"/>
  </defs>
  <use fill="#131516" fill-rule="evenodd" xlink:href="#menu-a"/>
</svg>
