<svg xmlns="http://www.w3.org/2000/svg" xmlns:xlink="http://www.w3.org/1999/xlink" width="56" height="56" viewBox="0 0 56 56">
  <defs>
    <path id="refresh-a" d="M47.3489583,32.1666667 C47.3489583,32.21875 47.3489583,32.296875 47.3229167,32.3489583 C45.109375,41.5677083 37.5052083,48 27.8958333,48 C22.8177083,48 17.8958333,45.9947917 14.1979167,42.4791667 L10.8385417,45.8385417 C10.5260417,46.1510417 10.109375,46.3333333 9.66666667,46.3333333 C8.75520833,46.3333333 8,45.578125 8,44.6666667 L8,33 C8,32.0885417 8.75520833,31.3333333 9.66666667,31.3333333 L21.3333333,31.3333333 C22.2447917,31.3333333 23,32.0885417 23,33 C23,33.4427083 22.8177083,33.859375 22.5052083,34.171875 L18.9375,37.7395833 C21.3854167,40.03125 24.640625,41.3333333 28,41.3333333 C32.6354167,41.3333333 36.9322917,38.9375 39.3541667,34.9791667 C39.9791667,33.9635417 40.2916667,32.9739583 40.734375,31.9322917 C40.8645833,31.5677083 41.125,31.3333333 41.515625,31.3333333 L46.515625,31.3333333 C46.984375,31.3333333 47.3489583,31.7239583 47.3489583,32.1666667 Z M48,11.3333333 L48,23 C48,23.9114583 47.2447917,24.6666667 46.3333333,24.6666667 L34.6666667,24.6666667 C33.7552083,24.6666667 33,23.9114583 33,23 C33,22.5572917 33.1822917,22.140625 33.4947917,21.828125 L37.0885417,18.234375 C34.6145833,15.9427083 31.359375,14.6666667 28,14.6666667 C23.3645833,14.6666667 19.0677083,17.0625 16.6458333,21.0208333 C16.0208333,22.0364583 15.7083333,23.0260417 15.265625,24.0677083 C15.1354167,24.4322917 14.875,24.6666667 14.484375,24.6666667 L9.30208333,24.6666667 C8.83333333,24.6666667 8.46875,24.2760417 8.46875,23.8333333 C8.46875,23.78125 8.46875,23.703125 8.46875,23.6510417 C10.7083333,14.40625 18.390625,8 28,8 C33.1041667,8 38.078125,10.03125 41.7760417,13.5208333 L45.1614583,10.1614583 C45.4739583,9.84895833 45.890625,9.66666667 46.3333333,9.66666667 C47.2447917,9.66666667 48,10.421875 48,11.3333333 Z"/>
  </defs>
  <use fill="#131516" fill-rule="evenodd" xlink:href="#refresh-a"/>
</svg>
