<svg xmlns="http://www.w3.org/2000/svg" width="56" height="56" viewBox="0 0 56 56">
  <path fill="#131516" fill-rule="evenodd" d="M37.2355026,32.9928619 L46.7279221,42.4852814 C47.8994949,43.6568542 47.8994949,45.5563492 46.7279221,46.7279221 C45.5563492,47.8994949 43.6568542,47.8994949 42.4852814,46.7279221 L32.9928619,37.2355026 C30.4300358,38.9801974 27.3341117,40 24,40 C15.163444,40 8,32.836556 8,24 C8,15.163444 15.163444,8 24,8 C32.836556,8 40,15.163444 40,24 C40,27.3341117 38.9801974,30.4300358 37.2355026,32.9928619 Z M24,35 C30.0751322,35 35,30.0751322 35,24 C35,17.9248678 30.0751322,13 24,13 C17.9248678,13 13,17.9248678 13,24 C13,30.0751322 17.9248678,35 24,35 Z"/>
</svg>
