<?xml version="1.0" encoding="UTF-8"?>
<svg width="24px" height="24px" viewBox="0 0 24 24" version="1.1" xmlns="http://www.w3.org/2000/svg" xmlns:xlink="http://www.w3.org/1999/xlink">
    <!-- Generator: Sketch 53.2 (72643) - https://sketchapp.com -->
    <title>icon/telefoongids/24px</title>
    <desc>Created with Sketch.</desc>
    <g id="icon/telefoongids/24px" stroke="none" stroke-width="1" fill="none" fill-rule="evenodd">
        <path d="M6.86937242,5 C6.71769744,5 6.57513596,5.05908203 6.46772664,5.16634113 L5.97266727,5.66145833 C4.98645435,6.64778647 4.74038936,8.2669271 5.27938889,10.2207031 C5.82750196,12.2073568 7.11869226,14.2906901 8.91470642,16.0869141 C11.3281614,18.500651 14.3014469,20.0001628 16.6738911,20 C17.7824856,20 18.7039274,19.6642253 19.3389444,19.0292969 L19.8340038,18.5341797 C20.0553321,18.3126627 20.0553321,17.9523112 19.8340038,17.7307942 L16.9707315,14.8671875 C16.7559128,14.6526692 16.3822586,14.6526692 16.1674399,14.8671875 L15.3862811,15.6482747 C15.0699118,15.964681 14.6191182,16.1318359 14.0820715,16.1318359 L14.0820715,16.1318359 C13.0102566,16.1318359 11.679032,15.465983 10.607217,14.3942057 C8.9436744,12.7306315 8.3812401,10.5864258 9.35313177,9.61442053 L10.1342905,8.83333333 C10.3556188,8.6118164 10.3556188,8.25146483 10.1342905,8.0299479 L7.2710182,5.16634113 C7.16360888,5.05908203 7.0210474,5 6.86937242,5 Z" id="Path" fill="#003741"></path>
        <path d="M19.4629907,12 C19.1661672,12 18.9259814,11.7598142 18.9259814,11.4629907 C18.9259814,8.49160918 16.5083907,6.07401858 13.5370093,6.07401858 C13.2401858,6.07401858 13,5.8338328 13,5.53700929 C13,5.24018578 13.2401858,5 13.5370093,5 C17.100989,5 20,7.89953549 20,11.4629907 C20,11.7598142 19.7598142,12 19.4629907,12 Z" id="Path" fill="#003741"></path>
        <circle id="Oval" fill="#003741" cx="15" cy="10" r="1"></circle>
    </g>
</svg>