<svg xmlns="http://www.w3.org/2000/svg" width="24" height="24" viewBox="0 0 24 24">
    <g fill="none" fill-rule="evenodd">
        <rect width="3" height="4" x="18" y="6" fill="#003741" rx="1.5"/>
        <rect width="5" height="6" x="2" y="3" fill="#003741" rx="2.5"/>
        <path fill="#103841" fill-rule="nonzero" d="M7 20.895V22h10v-4.053C17 16.32 15.508 15 13.667 15h-3.334C8.493 15 7 16.32 7 17.947v2.948z"/>
        <path fill="#003741" d="M21.25 11h-3.5c-.966 0-1.75.895-1.75 2v.35c1.49.607 2.662 1.947 3.194 3.65H23v-4c0-1.105-.784-2-1.75-2z"/>
        <rect width="6" height="7" x="9" y="7" fill="#103841" fill-rule="nonzero" rx="3"/>
        <path fill="#003741" d="M8 14.02V12.4c0-1.325-.784-2.4-1.75-2.4h-3.5C1.784 10 1 11.075 1 12.4V16h4.848c.585-.896 1.325-1.577 2.152-1.98z"/>
    </g>
</svg>
