<?xml version="1.0" encoding="UTF-8"?>
<svg width="24px" height="24px" viewBox="0 0 24 24" version="1.1" xmlns="http://www.w3.org/2000/svg" xmlns:xlink="http://www.w3.org/1999/xlink">
    <!-- Generator: Sketch 53.2 (72643) - https://sketchapp.com -->
    <title>icon/kwadraet/24px</title>
    <desc>Created with Sketch.</desc>
    <g id="icon/kwadraet/24px" stroke="none" stroke-width="1" fill="none" fill-rule="evenodd">
        <g id="catalogus" transform="translate(0.800000, -0.000000)">
            <path d="M20,3.5 L17.7285714,3.5 L17.7285714,2 C17.7285714,1.17157288 17.0569986,0.5 16.2285714,0.5 L2,0.5 C1.17157288,0.5 0.5,1.17157288 0.5,2 L0.5,22 C0.5,22.8284271 1.17157288,23.5 2,23.5 L20,23.5 C20.8284271,23.5 21.5,22.8284271 21.5,22 L21.5,5 C21.5,4.17157288 20.8284271,3.5 20,3.5 Z" id="Path" stroke="#003741"></path>
            <path d="M17.2,4 L5.2,4 C4.64771525,4 4.2,3.55228475 4.2,3 L4.2,3 C4.2,2.44771525 4.64771525,2 5.2,2 L17.2,2 L17.2,4 Z" id="Path" fill="#003741"></path>
        </g>
        <polygon id="Shape" fill="#ED7921" points="15.25 6.00000724 7.00000817 6.00000724 7.00000817 21 18 21 18 8.8125"></polygon>
    </g>
</svg>