<?xml version="1.0" encoding="UTF-8"?>
<svg width="24px" height="24px" viewBox="0 0 24 24" version="1.1" xmlns="http://www.w3.org/2000/svg" xmlns:xlink="http://www.w3.org/1999/xlink">
    <!-- Generator: Sketch 53.2 (72643) - https://sketchapp.com -->
    <title>icon/dienstengids/24px</title>
    <desc>Created with Sketch.</desc>
    <g id="icon/dienstengids/24px" stroke="none" stroke-width="1" fill="none" fill-rule="evenodd">
        <path d="M12.2342715,10.2440753 C12.6543543,9.07750959 12.3542951,7.79129616 11.4091088,6.84907004 C10.5239343,5.96666781 9.24868282,5.57781259 8.10845801,5.84702005 C8.0034373,5.87693199 7.91341956,5.95171184 7.88341364,6.05640363 C7.85340772,6.16109542 7.88341364,6.28074318 7.95842843,6.35552303 L9.51873607,7.91094392 C9.59375086,7.98572377 9.63875973,8.09041556 9.65376269,8.19510735 C9.65376269,8.28484317 9.62375677,8.37457899 9.56374494,8.43440288 L8.3635083,9.63088048 C8.22848168,9.76548421 7.98843435,9.75052824 7.83840477,9.58601257 L6.30810304,8.07545959 C6.23308825,8.00067974 6.11306459,7.9707678 6.00804388,8.00067974 C5.90302318,8.03059168 5.82800839,8.1203275 5.79800247,8.22501929 C5.58796106,9.33176108 5.94803205,10.5132827 6.7881977,11.365773 C7.68837519,12.2930432 9.05364437,12.6220745 10.2238751,12.2182633 L10.2988899,12.2930432 L16.6001323,18.5595946 C16.9151944,18.87367 17.3052713,19.0232297 17.6953482,19.0232297 C18.0554192,19.0232297 18.4004872,18.888626 18.6555375,18.6343745 C19.210647,18.0810036 19.1656381,17.1686894 18.5805227,16.5854066 L12.2342715,10.2440753 Z" id="Path" fill="#003741" transform="translate(12.393094, 12.393094) rotate(45.000000) translate(-12.393094, -12.393094) "></path>
    </g>
</svg>