<?xml version="1.0" encoding="UTF-8"?>
<svg width="24px" height="24px" viewBox="0 0 24 24" version="1.1" xmlns="http://www.w3.org/2000/svg" xmlns:xlink="http://www.w3.org/1999/xlink">
    <!-- Generator: Sketch 53.2 (72643) - https://sketchapp.com -->
    <title>icon/dienstengids/24px</title>
    <desc>Created with Sketch.</desc>
    <g id="icon/dienstengids/24px" stroke="none" stroke-width="1" fill="none" fill-rule="evenodd">
        <g id="catalogus" transform="translate(0.800000, -0.000000)">
            <path d="M20,3.5 L17.7285714,3.5 L17.7285714,2 C17.7285714,1.17157288 17.0569986,0.5 16.2285714,0.5 L2,0.5 C1.17157288,0.5 0.5,1.17157288 0.5,2 L0.5,22 C0.5,22.8284271 1.17157288,23.5 2,23.5 L20,23.5 C20.8284271,23.5 21.5,22.8284271 21.5,22 L21.5,5 C21.5,4.17157288 20.8284271,3.5 20,3.5 Z" id="Path" stroke="#003741"></path>
            <path d="M17.2,4 L5.2,4 C4.64771525,4 4.2,3.55228475 4.2,3 L4.2,3 C4.2,2.44771525 4.64771525,2 5.2,2 L17.2,2 L17.2,4 Z" id="Path" fill="#003741"></path>
        </g>
        <path d="M11.8423732,10.8469463 C12.262456,9.68038063 11.9623969,8.3941672 11.0172105,7.45194108 C10.132036,6.56953885 8.85678456,6.18068362 7.71655975,6.44989109 C7.61153904,6.47980303 7.5215213,6.55458288 7.49151538,6.65927467 C7.46150946,6.76396646 7.49151538,6.88361422 7.56653017,6.95839407 L9.12683781,8.51381496 C9.2018526,8.58859481 9.24686147,8.6932866 9.26186443,8.79797839 C9.26186443,8.88771421 9.23185851,8.97745003 9.17184668,9.03727391 L7.97161004,10.2337515 C7.83658342,10.3683553 7.59653609,10.3533993 7.44650651,10.1888836 L5.91620478,8.67833063 C5.84118999,8.60355078 5.72116633,8.57363884 5.61614562,8.60355078 C5.51112492,8.63346272 5.43611013,8.72319854 5.40610421,8.82789033 C5.1960628,9.93463212 5.55613379,11.1161538 6.39629944,11.9686441 C7.29647693,12.8959142 8.66174611,13.2249455 9.83197684,12.8211344 L9.90699163,12.8959142 L16.208234,19.1624657 C16.5232961,19.476541 16.913373,19.6261007 17.3034499,19.6261007 C17.6635209,19.6261007 18.008589,19.491497 18.2636393,19.2372455 C18.8187487,18.6838746 18.7737398,17.7715605 18.1886245,17.1882776 L11.8423732,10.8469463 Z" id="Path" fill="#ED7921" transform="translate(12.001195, 12.995965) rotate(45.000000) translate(-12.001195, -12.995965) "></path>
    </g>
</svg>