<?xml version="1.0" encoding="UTF-8"?>
<svg width="24px" height="24px" viewBox="0 0 24 24" version="1.1" xmlns="http://www.w3.org/2000/svg" xmlns:xlink="http://www.w3.org/1999/xlink">
    <!-- Generator: Sketch 53.2 (72643) - https://sketchapp.com -->
    <title>icon/kafkaknop/24px</title>
    <desc>Created with Sketch.</desc>
    <g id="icon/kafkaknop/24px" stroke="none" stroke-width="1" fill="none" fill-rule="evenodd">
        <g id="noun_Galaxy_1649328_131516" transform="translate(2.000000, 2.000000)" fill="#ED7921" stroke="#ED7921" stroke-linecap="round" stroke-linejoin="bevel">
            <path d="M10.6136471,8.80919108 C10.6345173,8.80907593 10.6533966,8.79792052 10.6619641,8.7806415 C10.6705316,8.76336247 10.6672133,8.74313405 10.6534719,8.72887175 C10.6397305,8.71460945 10.6180902,8.7089333 10.5980888,8.71434502 C7.97984562,9.05942324 5.44606189,8.93228915 3.46348726,8.35514079 C1.48091263,7.77799242 0.309593312,6.83558583 0.127338693,5.6913791 C-0.0549159253,4.54717237 0.783010797,3.3323356 2.4922035,2.27490293 C4.20139621,1.21747026 6.60182289,0.434485767 9.22006607,0.0894075483 C9.24875039,0.0852625392 9.26851011,0.0610426911 9.26451842,0.0349215137 C9.25795583,0.0116186553 9.23287354,-0.00327150991 9.20673037,0.000615491959 C6.57070625,0.343675709 4.16583433,1.1246422 2.44330592,2.19620088 C0.720777513,3.26775956 -0.163824173,4.52093836 0.0250982976,5.70348711 C0.214020768,6.88603586 1.42312458,7.87082048 3.43237062,8.44595085 C4.83604538,8.82983202 6.29618509,9.01630365 7.76202912,8.9988832 C8.71633516,8.99749228 9.66930829,8.93409967 10.6136471,8.80919108 Z" id="Path"></path>
            <path d="M20.6415493,5.65996432 C20.4458108,4.34668762 19.2424633,3.26648391 17.2316942,2.61656882 C15.2209251,1.96665373 12.6807721,1.82770636 10.0449741,2.21317325 C10.0313557,2.21484438 10.018974,2.22195649 10.0106094,2.23291261 C10.0022447,2.24386873 9.99859798,2.25775071 10.0004881,2.2714415 C10.0050568,2.30036417 10.0317527,2.32028809 10.0605442,2.31626323 C12.6807721,1.93303743 15.2164765,2.07646697 17.200554,2.71517663 C19.1846315,3.35388629 20.3568387,4.40943804 20.5392314,5.67565192 C20.9195871,8.31789293 16.8379927,11.1080457 11.4396115,11.8969081 C11.4259931,11.8985793 11.4136114,11.9056914 11.4052468,11.9166475 C11.3968821,11.9276036 11.3932354,11.9414856 11.3951255,11.9551764 C11.3984952,11.9809911 11.4204433,12.0002204 11.4462844,11.9999981 L11.4462844,11.9999981 C14.0909796,11.6145312 16.4976745,10.7472307 18.2215087,9.56393704 C19.9453428,8.38064336 20.830615,6.97548211 20.6415493,5.65996432 Z" id="Path"></path>
        </g>
        <g id="icon/symbolisch/bezoek" transform="translate(4.000000, 3.000000)" fill="#003741">
            <path d="M12,10 C11.3472339,11.3333333 10.1805672,12 8.5,12 C6.81943279,12 5.65276612,11.3333333 5,10 L2.93103448,10 C0.880381811,10 0,11.4229323 0,13.3794653 L0,19 L14.6551724,19 C16.0347864,19 17,18.0751479 17,16.7589307 L17,13.3794653 C17,11.4229323 15.5333316,10 13.4827586,10 L12,10 Z" id="shape"></path>
            <path d="M12.2526971,4.73053577 C11.9339437,6.90367776 10.7615343,9 8.50003826,9 C6.01474151,9 4,6.98524136 4,4.5 C4,2.01468213 6.01474151,0 8.50003826,0 C10.985182,0 13,2.01468213 13,4.5 L12.2526971,4.73053577 Z" id="shape"></path>
        </g>
    </g>
</svg>