<?xml version="1.0" encoding="UTF-8"?>
<svg width="24px" height="24px" viewBox="0 0 24 24" version="1.1" xmlns="http://www.w3.org/2000/svg" xmlns:xlink="http://www.w3.org/1999/xlink">
    <!-- Generator: Sketch 53.2 (72643) - https://sketchapp.com -->
    <title>icon/meldingen en noodsituaties/24px</title>
    <desc>Created with Sketch.</desc>
    <g id="icon/meldingen-en-noodsituaties/24px" stroke="none" stroke-width="1" fill="none" fill-rule="evenodd">
        <g id="noun_emergency_1883819_131516" transform="translate(2.000000, 1.000000)">
            <path d="M5.45256569,11.3924051 C5.45256569,8.84573524 7.46852844,6.84038803 10.0000045,6.83544304 C12.5216496,6.84038803 14.5618775,8.85068023 14.556962,11.3924051 C14.556962,11.3957017 14.556965,13.0834654 14.5569709,16.4556962 L5.44303797,16.4556962 L5.45256569,11.3924051 Z M14.3037975,19.9800071 L5.69620253,19.9800071 C4.99710791,19.9800071 4.43037975,19.4132789 4.43037975,18.7141843 L4.43037975,18.7141843 C4.43037975,18.0150897 4.99710791,17.4483615 5.69620253,17.4483615 L14.3037975,17.4483615 C15.0028921,17.4483615 15.5696203,18.0150897 15.5696203,18.7141843 L15.5696203,18.7141843 C15.5696203,19.4132789 15.0028921,19.9800071 14.3037975,19.9800071 Z" id="Shape" fill="#003741"></path>
            <path d="M10.0316456,4.11392405 C10.2927215,4.11392405 10.5063291,3.88843491 10.5063291,3.61283708 L10.5063291,0.501086973 C10.5063291,0.225489138 10.2927215,0 10.0316456,0 C9.77056962,0 9.55696203,0.225489138 9.55696203,0.501086973 L9.55696203,3.61283708 C9.55696203,3.89344578 9.77056962,4.11392405 10.0316456,4.11392405 Z" id="Path" fill="#ED7921"></path>
            <path d="M19.498913,8.48101266 L16.3871629,8.48101266 C16.1115651,8.48101266 15.8860759,8.69462025 15.8860759,8.9556962 C15.8860759,9.21677215 16.1115651,9.43037975 16.3871629,9.43037975 L19.498913,9.43037975 C19.7745109,9.43037975 20,9.21677215 20,8.9556962 C20,8.69462025 19.7845326,8.48101266 19.498913,8.48101266 Z" id="Path" fill="#ED7921"></path>
            <path d="M4.11392405,8.9556962 C4.11392405,8.69462025 3.88843491,8.48101266 3.61283708,8.48101266 L0.501086973,8.48101266 C0.225489138,8.48101266 0,8.69462025 0,8.9556962 C0,9.21677215 0.225489138,9.43037975 0.501086973,9.43037975 L3.61283708,9.43037975 C3.88342404,9.43037975 4.11392405,9.21677215 4.11392405,8.9556962 Z" id="Path" fill="#ED7921"></path>
            <path d="M5.73847923,5.48794148 C5.93177245,5.6812347 6.24401534,5.6812347 6.43730857,5.48794148 C6.63060179,5.29464826 6.63060179,4.98240536 6.43730857,4.78911214 L4.26152077,2.61332435 C4.06822755,2.42003113 3.75598466,2.42003113 3.56269143,2.61332435 C3.36939821,2.80661757 3.36939821,3.11886046 3.56269143,3.31215368 L5.73847923,5.48794148 Z" id="Path" fill="#ED7921"></path>
            <path d="M13.9092394,5.63291139 C14.0429521,5.63291139 14.1667601,5.57841454 14.2608542,5.48923787 L16.4349231,3.31431803 C16.6280636,3.12110191 16.633016,2.80898358 16.4398754,2.61576746 C16.2467349,2.42255135 15.9347387,2.41759709 15.7415982,2.6108132 C15.7415982,2.6108132 15.7415982,2.6108132 15.7366459,2.61576746 L13.5625769,4.79068731 C13.3694364,4.98390342 13.3694364,5.29602176 13.5625769,5.48923787 C13.6517187,5.57841454 13.7755267,5.63291139 13.9092394,5.63291139 L13.9092394,5.63291139 Z" id="Path" fill="#ED7921"></path>
        </g>
    </g>
</svg>