<?xml version="1.0" encoding="UTF-8"?>
<svg width="16px" height="16px" viewBox="0 0 16 16" version="1.1" xmlns="http://www.w3.org/2000/svg" xmlns:xlink="http://www.w3.org/1999/xlink">
    <!-- Generator: Sketch 53.2 (72643) - https://sketchapp.com -->
    <title>angle-right-16px</title>
    <desc>Created with Sketch.</desc>
    <g id="angle-right-16px" stroke="none" stroke-width="1" fill="none" fill-rule="evenodd">
        <g id="icon/functional/angle-right" fill="#131516">
            <path d="M10.9333333,8 C10.9333333,8.07695391 10.8948454,8.16352705 10.8371134,8.22124248 L6.3532646,12.7038076 C6.29553265,12.761523 6.20893471,12.8 6.13195876,12.8 C6.05498282,12.8 5.96838488,12.761523 5.91065292,12.7038076 L5.42955326,12.2228457 C5.37182131,12.1651303 5.33333333,12.0881764 5.33333333,12.0016032 C5.33333333,11.9246493 5.37182131,11.8380762 5.42955326,11.7803607 L9.21099656,8 L5.42955326,4.21963928 C5.37182131,4.16192385 5.33333333,4.0753507 5.33333333,3.99839679 C5.33333333,3.92144289 5.37182131,3.83486974 5.42955326,3.77715431 L5.91065292,3.29619238 C5.96838488,3.23847695 6.05498282,3.2 6.13195876,3.2 C6.20893471,3.2 6.29553265,3.23847695 6.3532646,3.29619238 L10.8371134,7.77875752 C10.8948454,7.83647295 10.9333333,7.92304609 10.9333333,8 Z" id=""></path>
        </g>
    </g>
</svg>