<?xml version="1.0" encoding="UTF-8"?>
<svg width="16px" height="16px" viewBox="0 0 16 16" version="1.1" xmlns="http://www.w3.org/2000/svg" xmlns:xlink="http://www.w3.org/1999/xlink">
    <!-- Generator: Sketch 53.2 (72643) - https://sketchapp.com -->
    <title>angle-down-16px</title>
    <desc>Created with Sketch.</desc>
    <g id="angle-down-16px" stroke="none" stroke-width="1" fill="none" fill-rule="evenodd">
        <g id="icon/functional/angle-down" fill="#131516">
            <path d="M12.8,6.13195876 C12.8,6.20893471 12.761523,6.29553265 12.7038076,6.3532646 L8.22124248,10.8371134 C8.16352705,10.8948454 8.07695391,10.9333333 8,10.9333333 C7.92304609,10.9333333 7.83647295,10.8948454 7.77875752,10.8371134 L3.29619238,6.3532646 C3.23847695,6.29553265 3.2,6.20893471 3.2,6.13195876 C3.2,6.05498282 3.23847695,5.96838488 3.29619238,5.91065292 L3.77715431,5.42955326 C3.83486974,5.37182131 3.91182365,5.33333333 3.99839679,5.33333333 C4.0753507,5.33333333 4.16192385,5.37182131 4.21963928,5.42955326 L8,9.21099656 L11.7803607,5.42955326 C11.8380762,5.37182131 11.9246493,5.33333333 12.0016032,5.33333333 C12.0785571,5.33333333 12.1651303,5.37182131 12.2228457,5.42955326 L12.7038076,5.91065292 C12.761523,5.96838488 12.8,6.05498282 12.8,6.13195876 Z" id="angle-down"></path>
        </g>
    </g>
</svg>