<?xml version="1.0" encoding="UTF-8"?>
<svg width="24px" height="24px" viewBox="0 0 24 24" version="1.1" xmlns="http://www.w3.org/2000/svg" xmlns:xlink="http://www.w3.org/1999/xlink">
    <!-- Generator: Sketch 53.2 (72643) - https://sketchapp.com -->
    <title>CareCTRL-s</title>
    <desc>Created with Sketch.</desc>
    <g id="CareCTRL-s" stroke="none" stroke-width="1" fill="none" fill-rule="evenodd">
        <path d="M18.3714286,3.42857143 L18.3714286,2 C18.3714286,0.8954305 17.4759981,1.57045259e-13 16.3714286,1.47437618e-13 L3.8,0 C2.6954305,-9.6076418e-15 1.8,0.8954305 1.8,2 L1.8,22 C1.8,23.1045695 2.6954305,24 3.8,24 L19.8,24 C20.9045695,24 21.8,23.1045695 21.8,22 L21.8,5.42857143 C21.8,4.32400193 20.9045695,3.42857143 19.8,3.42857143 L18.3714286,3.42857143 Z" id="Path" fill="#003741"></path>
        <path d="M17.4,3.6 L4.2,3.6 C3.5372583,3.6 3,3.0627417 3,2.4 L3,2.4 C3,1.7372583 3.5372583,1.2 4.2,1.2 L17.4,1.2 L17.4,3.6 Z" id="Path" fill="#ED7921"></path>
        <g id="noun_service_2115214_131516" transform="translate(4.000000, 6.000000)" fill="#FFFFFF">
            <path d="M9.38164128,14.4616566 L9.38164128,16 L6.61753937,16 L6.61753937,14.4616566 C5.81907566,14.2908206 5.07468954,13.9737294 4.41101011,13.5423377 L3.32126488,14.6337217 L1.36463961,12.6791448 L2.45766227,11.5893996 C2.02586097,10.9257201 1.70917936,10.1809243 1.53834336,9.38205095 L4.97379915e-14,9.38205095 L4.97379915e-14,6.61794905 L1.537524,6.61794905 C1.70836001,5.81948534 2.02504161,5.0755089 2.45643324,4.41182947 L1.36545897,3.32044553 L3.32003585,1.36627833 L4.41101011,2.45684291 C5.07468954,2.02545129 5.81866598,1.70836001 6.61753937,1.537524 L6.61753937,-6.21724894e-15 L9.38287031,-6.21724894e-15 L9.38287031,1.53793368 C10.181334,1.70876968 10.9257201,2.02545129 11.5893996,2.45684291 L12.6795545,1.36545897 L14.6349507,3.32003585 L13.5427474,4.41060044 C13.974139,5.07427986 14.2912303,5.81866598 14.4620663,6.61753937 L16,6.61753937 L16,9.38205095 L14.4616566,9.38205095 C14.2908206,10.1805147 13.974139,10.9249008 13.5423377,11.5885802 L14.633312,12.6795545 L12.6791448,14.6341314 L11.5881705,13.5427474 C11.1454445,13.8303418 10.4099347,14.1366449 9.38164128,14.4616566 Z M4.61538462,8.07692308 C4.61538462,9.90071435 6.09928565,11.3846154 7.92307692,11.3846154 C9.74686819,11.3846154 11.2307692,9.90071435 11.2307692,8.07692308 C11.2307692,6.25313181 9.74686819,4.76923077 7.92307692,4.76923077 C6.09928565,4.76923077 4.61538462,6.25313181 4.61538462,8.07692308 Z" id="Combined-Shape"></path>
        </g>
    </g>
</svg>