<?xml version="1.0" encoding="UTF-8"?>
<svg width="56px" height="56px" viewBox="0 0 56 56" version="1.1" xmlns="http://www.w3.org/2000/svg" xmlns:xlink="http://www.w3.org/1999/xlink">
    <!-- Generator: Sketch 53.2 (72643) - https://sketchapp.com -->
    <title>close-subnavigation-hover</title>
    <desc>Created with Sketch.</desc>
    <defs>
        <circle id="path-1" cx="28.3333333" cy="28.3333333" r="23.3333333"></circle>
        <filter x="-33.2%" y="-31.1%" width="166.4%" height="166.4%" filterUnits="objectBoundingBox" id="filter-2">
            <feOffset dx="0" dy="2" in="SourceAlpha" result="shadowOffsetOuter1"></feOffset>
            <feGaussianBlur stdDeviation="2" in="shadowOffsetOuter1" result="shadowBlurOuter1"></feGaussianBlur>
            <feColorMatrix values="0 0 0 0 0   0 0 0 0 0   0 0 0 0 0  0 0 0 0.2 0" type="matrix" in="shadowBlurOuter1" result="shadowMatrixOuter1"></feColorMatrix>
            <feOffset dx="0" dy="1" in="SourceAlpha" result="shadowOffsetOuter2"></feOffset>
            <feGaussianBlur stdDeviation="5" in="shadowOffsetOuter2" result="shadowBlurOuter2"></feGaussianBlur>
            <feColorMatrix values="0 0 0 0 0   0 0 0 0 0   0 0 0 0 0  0 0 0 0.12 0" type="matrix" in="shadowBlurOuter2" result="shadowMatrixOuter2"></feColorMatrix>
            <feOffset dx="0" dy="4" in="SourceAlpha" result="shadowOffsetOuter3"></feOffset>
            <feGaussianBlur stdDeviation="2.5" in="shadowOffsetOuter3" result="shadowBlurOuter3"></feGaussianBlur>
            <feColorMatrix values="0 0 0 0 0   0 0 0 0 0   0 0 0 0 0  0 0 0 0.14 0" type="matrix" in="shadowBlurOuter3" result="shadowMatrixOuter3"></feColorMatrix>
            <feMerge>
                <feMergeNode in="shadowMatrixOuter1"></feMergeNode>
                <feMergeNode in="shadowMatrixOuter2"></feMergeNode>
                <feMergeNode in="shadowMatrixOuter3"></feMergeNode>
            </feMerge>
        </filter>
        <path d="M29.6,25.2646465 C29.6,25.7318182 29.4131313,26.1989899 29.0767677,26.5353535 L26.5353535,29.0767677 C26.1989899,29.4131313 25.7318182,29.6 25.2646465,29.6 C24.7974747,29.6 24.330303,29.4131313 23.9939394,29.0767677 L18.5,23.5828283 L13.0060606,29.0767677 C12.669697,29.4131313 12.2025253,29.6 11.7353535,29.6 C11.2681818,29.6 10.8010101,29.4131313 10.4646465,29.0767677 L7.92323232,26.5353535 C7.58686869,26.1989899 7.4,25.7318182 7.4,25.2646465 C7.4,24.7974747 7.58686869,24.330303 7.92323232,23.9939394 L13.4171717,18.5 L7.92323232,13.0060606 C7.58686869,12.669697 7.4,12.2025253 7.4,11.7353535 C7.4,11.2681818 7.58686869,10.8010101 7.92323232,10.4646465 L10.4646465,7.92323232 C10.8010101,7.58686869 11.2681818,7.4 11.7353535,7.4 C12.2025253,7.4 12.669697,7.58686869 13.0060606,7.92323232 L18.5,13.4171717 L23.9939394,7.92323232 C24.330303,7.58686869 24.7974747,7.4 25.2646465,7.4 C25.7318182,7.4 26.1989899,7.58686869 26.5353535,7.92323232 L29.0767677,10.4646465 C29.4131313,10.8010101 29.6,11.2681818 29.6,11.7353535 C29.6,12.2025253 29.4131313,12.669697 29.0767677,13.0060606 L23.5828283,18.5 L29.0767677,23.9939394 C29.4131313,24.330303 29.6,24.7974747 29.6,25.2646465 Z" id="path-3"></path>
    </defs>
    <g id="close-subnavigation-hover" stroke="none" stroke-width="1" fill="none" fill-rule="evenodd">
        <g id="Oval">
            <use fill="black" fill-opacity="1" filter="url(#filter-2)" xlink:href="#path-1"></use>
            <use fill="#FFFFFF" fill-rule="evenodd" xlink:href="#path-1"></use>
        </g>
        <circle id="Oval" fill="#003741" cx="28.3333333" cy="28.3333333" r="23.3333333"></circle>
        <g id="icon/functional/close" transform="translate(9.333333, 9.333333)">
            <mask id="mask-4" fill="white">
                <use xlink:href="#path-3"></use>
            </mask>
            <use id="close" fill="#FFFFFF" fill-rule="evenodd" xlink:href="#path-3"></use>
        </g>
    </g>
</svg>