<?xml version="1.0" encoding="UTF-8"?>
<svg width="24px" height="24px" viewBox="0 0 24 24" version="1.1" xmlns="http://www.w3.org/2000/svg" xmlns:xlink="http://www.w3.org/1999/xlink">
    <!-- Generator: Sketch 53.2 (72643) - https://sketchapp.com -->
    <title>Dienstengids-s</title>
    <desc>Created with Sketch.</desc>
    <g id="Dienstengids-s" stroke="none" stroke-width="1" fill="none" fill-rule="evenodd">
        <path d="M20.8,3.5 L18.5285714,3.5 L18.5285714,2 C18.5285714,1.17157288 17.8569986,0.5 17.0285714,0.5 L2.8,0.5 C1.97157288,0.5 1.3,1.17157288 1.3,2 L1.3,22 C1.3,22.8284271 1.97157288,23.5 2.8,23.5 L20.8,23.5 C21.6284271,23.5 22.3,22.8284271 22.3,22 L22.3,5 C22.3,4.17157288 21.6284271,3.5 20.8,3.5 Z" id="Path" stroke="#003741"></path>
        <path d="M18,4 L6,4 C5.44771525,4 5,3.55228475 5,3 L5,3 C5,2.44771525 5.44771525,2 6,2 L18,2 L18,4 Z" id="Path" fill="#003741"></path>
        <g id="Group" transform="translate(5.000000, 6.000000)" fill="#ED7921">
            <path d="M12.2434381,4.35339928 C12.3184529,4.32348734 12.3934677,4.27861943 12.4234736,4.20383958 L13.9687783,1.13786571 C14.0287901,1.01821795 13.9987842,0.883614219 13.9087665,0.793878398 L13.2036274,0.0909478032 C13.1136097,0.00121198261 12.9785831,-0.0286999576 12.8585594,0.0311239228 L9.79795595,1.58654481 C9.72294116,1.63141272 9.66292933,1.6912366 9.64792637,1.76601645 L9.15282876,3.48595302 L7.32246787,5.32553734 L6.84237322,4.8469463 C7.26245604,3.68038063 6.96239688,2.3941672 6.01721052,1.45194108 C5.132036,0.569538847 3.85678456,0.180683624 2.71655975,0.449891086 C2.61153904,0.479803026 2.5215213,0.554582876 2.49151538,0.659274667 C2.46150946,0.763966458 2.49151538,0.883614219 2.56653017,0.958394069 L4.12683781,2.51381496 C4.2018526,2.58859481 4.24686147,2.6932866 4.26186443,2.79797839 C4.26186443,2.88771421 4.23185851,2.97745003 4.17184668,3.03727391 L2.97161004,4.23375152 C2.83658342,4.36835525 2.59653609,4.35339928 2.44650651,4.18888361 L0.916204784,2.67833063 C0.841189994,2.60355078 0.721166329,2.57363884 0.616145623,2.60355078 C0.511124916,2.63346272 0.436110126,2.72319854 0.40610421,2.82789033 C0.196062797,3.93463212 0.55613379,5.11615376 1.39629944,5.96864405 C2.29647693,6.8959142 3.66174611,7.22494554 4.83197684,6.82113435 L4.90699163,6.8959142 L0.511124916,11.3079254 C0.196062797,11.6220008 0.0160273004,12.0258119 0.00102434234,12.4445791 C-0.0139786157,12.8783022 0.136050965,13.2821134 0.436110126,13.5662769 C0.721166329,13.8354843 1.08123732,14 1.48631719,14 C1.51632311,14 1.53132606,14 1.56133198,14 C1.98141481,13.985044 2.38649467,13.8055724 2.70155679,13.491497 L7.11242646,9.09444181 L11.208234,13.1624657 C11.5232961,13.476541 11.913373,13.6261007 12.3034499,13.6261007 C12.6635209,13.6261007 13.008589,13.491497 13.2636393,13.2372455 C13.8187487,12.6838746 13.7737398,11.7715605 13.1886245,11.1882776 L8.68773706,6.68653062 L10.5331009,4.8469463 L12.2434381,4.35339928 Z" id="Path"></path>
        </g>
    </g>
</svg>