<?xml version="1.0" encoding="UTF-8"?>
<svg width="40px" height="40px" viewBox="0 0 40 40" version="1.1" xmlns="http://www.w3.org/2000/svg" xmlns:xlink="http://www.w3.org/1999/xlink">
    <!-- Generator: Sketch 53.2 (72643) - https://sketchapp.com -->
    <title>icon/s/Dienstengids</title>
    <desc>Created with Sketch.</desc>
    <g id="icon/s/Dienstengids" stroke="none" stroke-width="1" fill="none" fill-rule="evenodd">
        <path d="M30.6190476,5.71428571 L30.6190476,2 C30.6190476,0.8954305 29.7236171,2.56779579e-13 28.6190476,2.49134047e-13 L5,0 C3.8954305,-9.6076418e-15 3,0.8954305 3,2 L3,38 C3,39.1045695 3.8954305,40 5,40 L34.3333333,40 C35.4379028,40 36.3333333,39.1045695 36.3333333,38 L36.3333333,7.71428571 C36.3333333,6.60971621 35.4379028,5.71428571 34.3333333,5.71428571 L30.6190476,5.71428571 Z" id="Path" fill="#003741"></path>
        <path d="M29,6 L7,6 C5.8954305,6 5,5.1045695 5,4 L5,4 C5,2.8954305 5.8954305,2 7,2 L29,2 L29,6 Z" id="Path" fill="#ED7921"></path>
        <g id="Group" transform="translate(8.000000, 10.000000)">
            <path d="M20.9887511,7.4629702 C21.1173478,7.41169259 21.2459446,7.33477617 21.2973833,7.20658214 L23.9464771,1.95062693 C24.0493545,1.74551649 23.9979158,1.51476723 23.8435996,1.3609344 L22.6347899,0.15591052 C22.4804737,0.00207768447 22.2489995,-0.0491999273 22.0432447,0.0533552963 L16.7964959,2.71979111 C16.6678991,2.79670753 16.5650217,2.89926275 16.5393024,3.02745678 L15.6905636,5.97591946 L12.5528021,9.12949258 L11.7297827,8.30905079 C12.4499246,6.30922393 11.9355375,4.10428663 10.315218,2.48904186 C8.797776,0.976352308 6.61163068,0.309743355 4.65695957,0.771241861 C4.47692408,0.822519473 4.32260794,0.950713503 4.27116922,1.13018514 C4.21973051,1.30965678 4.27116922,1.51476723 4.39976601,1.64296126 L7.0745791,4.30939707 C7.20317588,4.4375911 7.28033395,4.61706275 7.30605331,4.79653439 C7.30605331,4.95036722 7.2546146,5.10420006 7.15173717,5.20675528 L5.09418864,7.25785975 C4.86271443,7.48860901 4.45120472,7.4629702 4.19401115,7.18094333 L1.57063677,4.59142394 C1.44203999,4.46322991 1.23628514,4.4119523 1.05624964,4.46322991 C0.876214142,4.51450752 0.747617359,4.66834036 0.696178646,4.847812 C0.336107652,6.74508363 0.953372212,8.7705493 2.39365619,10.2319612 C3.93681759,11.8215672 6.27727904,12.3856209 8.28338886,11.6933732 L8.41198565,11.8215672 L0.876214142,19.3850149 C0.336107652,19.9234299 0.0274753721,20.6156776 0.00175601543,21.3335642 C-0.0239633412,22.0770896 0.233230225,22.7693373 0.747617359,23.2564746 C1.23628514,23.7179731 1.8535497,24 2.54797233,24 C2.59941104,24 2.6251304,24 2.67656911,24 C3.3967111,23.9743612 4.09113373,23.6666955 4.63124022,23.1282806 L12.1927311,15.5904717 L19.2141154,22.5642269 C19.7542219,23.1026418 20.4229252,23.3590299 21.0916285,23.3590299 C21.708893,23.3590299 22.3004382,23.1282806 22.7376673,22.6924209 C23.6892835,21.7437851 23.6121254,20.1798179 22.6090705,19.1799045 L14.8932635,11.4626239 L18.0567444,8.30905079 L20.9887511,7.4629702 Z" id="Path" fill="#FFFFFF"></path>
            <path d="M4.01693398,22.4295956 C3.63678797,22.7751829 3.17518212,22.9726613 2.68642297,22.9973461 C2.19766383,23.0220309 1.76321125,22.8739221 1.46452511,22.5777044 C1.13868568,22.2814868 0.975765967,21.8865299 1.00291925,21.4668882 C1.03007254,21.0225617 1.24729882,20.5782352 1.60029154,20.2573327 L9.58335756,13 L12,15.1969477 L4.01693398,22.4295956 Z" id="Path" fill="#003741"></path>
            <path d="M22.623497,22.6230302 C22.0773514,23.1698529 21.1411019,23.1177746 20.5169355,22.4928343 L9.255934,11.2178695 C9.15190628,11.1137128 9.02187162,11.0616345 8.89183696,11.0616345 C8.81381616,11.0616345 8.7618023,11.0876736 8.6837815,11.1137128 C6.967324,11.8428098 4.88676944,11.3741046 3.53440898,9.9940281 C2.5721525,9.03057846 2.05201386,7.78069785 2,6.50477805 L3.84649217,8.3535598 C4.5226724,9.03057846 5.5889566,9.05661764 6.2391299,8.43167733 L8.31968445,6.34854298 C8.63176764,6.03607282 8.78780923,5.59340677 8.78780923,5.15074072 C8.7618023,4.70807467 8.57975377,4.2914478 8.26767059,3.95293846 L6.3171507,2 C6.3171507,2 6.34315763,2 6.34315763,2 C7.69551809,2 9.04787855,2.57286195 10.0621489,3.58838995 C11.4665232,4.99450564 11.8826341,6.9474441 11.1284331,8.66602995 C11.0504123,8.87434339 11.0764192,9.08265682 11.2324608,9.2388919 L22.4934623,20.5138566 C23.1176287,21.1387969 23.1696426,22.0762074 22.623497,22.6230302 Z" id="Path" fill="#FFFFFF"></path>
            <path d="M17.3163539,7.60427807 L13.9115282,11 L13,10.0909091 L16.3780161,6.69518717 C16.4316354,6.64171123 16.4852547,6.56149733 16.5120643,6.45454545 L17.3699732,3.48663102 L22.3029491,1 L22.6514745,1.34759358 L23,1.69518717 L20.5335121,6.61497326 L17.5308311,7.47058824 C17.4504021,7.4973262 17.3699732,7.55080214 17.3163539,7.60427807 Z" id="Path" fill="#003741"></path>
        </g>
    </g>
</svg>