<?xml version="1.0" encoding="UTF-8"?>
<svg width="1120px" height="400px" viewBox="0 0 1120 400" version="1.1" xmlns="http://www.w3.org/2000/svg" xmlns:xlink="http://www.w3.org/1999/xlink">
    <!-- Generator: Sketch 53.2 (72643) - https://sketchapp.com -->
    <title>headerblock</title>
    <desc>Created with Sketch.</desc>
    <g id="headerblock" stroke="none" stroke-width="1" fill="none" fill-rule="evenodd">
        <g id="Group" transform="translate(0.000000, 176.000000)">
            <path d="M16,0 L443,0 C451.836556,-1.623249e-15 459,7.163444 459,16 L459,144 C459,152.836556 451.836556,160 443,160 L0,160 L0,16 C-1.082166e-15,7.163444 7.163444,1.623249e-15 16,0 Z" id="Rectangle" fill-opacity="0.8" fill="#FFFFFF"></path>
            <path d="M35.69,55.647 L35.69,29.407 C35.69,28.505 36.141,28.054 37.043,28.054 L38.355,28.054 C39.257,28.054 39.708,28.505 39.708,29.407 L39.708,55.647 C39.708,56.549 39.257,57 38.355,57 L37.043,57 C36.141,57 35.69,56.549 35.69,55.647 Z M46.7402593,55.647 L46.7402593,37.607 C46.7402593,36.705 47.2322593,36.254 48.0932593,36.254 L49.2412593,36.254 C50.1432593,36.254 50.5942593,36.705 50.5942593,37.607 L50.5942593,39.452 C50.5942593,40.067 50.4712593,40.641 50.4712593,40.641 L50.5532593,40.641 C51.3732593,38.837 53.8742593,35.762 58.4252593,35.762 C63.3042593,35.762 65.5182593,38.427 65.5182593,43.716 L65.5182593,55.647 C65.5182593,56.549 65.0672593,57 64.1652593,57 L62.8942593,57 C62.0332593,57 61.5412593,56.549 61.5412593,55.647 L61.5412593,44.618 C61.5412593,41.707 60.9672593,39.411 57.6462593,39.411 C53.6282593,39.411 50.7172593,42.773 50.7172593,47.078 L50.7172593,55.647 C50.7172593,56.549 50.2662593,57 49.3642593,57 L48.0932593,57 C47.2322593,57 46.7402593,56.549 46.7402593,55.647 Z M72.5095186,49.538 L72.5095186,39.698 L71.0745186,39.698 C70.2135186,39.698 69.7625186,39.206 69.7625186,38.345 L69.7625186,37.812 C69.7625186,36.951 70.2135186,36.459 71.1155186,36.459 L72.5915186,36.459 L72.5915186,31.908 C72.5915186,31.006 73.0835186,30.555 73.9445186,30.555 L75.1335186,30.555 C76.0355186,30.555 76.4865186,31.006 76.4865186,31.908 L76.4865186,36.459 L80.0945186,36.459 C80.9965186,36.459 81.4475186,36.951 81.4475186,37.812 L81.4475186,38.345 C81.4475186,39.206 80.9965186,39.698 80.1355186,39.698 L76.4865186,39.698 L76.4865186,48.923 C76.4865186,52.859 78.9055186,53.474 80.4225186,53.597 C81.4885186,53.679 81.8575186,54.007 81.8575186,54.95 L81.8575186,55.811 C81.8575186,56.754 81.3245186,57.164 80.2175186,57.164 C76.1175186,57.164 72.5095186,54.786 72.5095186,49.538 Z M86.3067779,55.647 L86.3067779,37.607 C86.3067779,36.705 86.7987779,36.254 87.6597779,36.254 L88.8077779,36.254 C89.7097779,36.254 90.1607779,36.705 90.1607779,37.607 L90.1607779,39.985 C90.1607779,40.846 90.0377779,41.543 90.0377779,41.543 L90.1197779,41.543 C91.0217779,38.796 93.3587779,36.09 96.4747779,36.09 C97.4177779,36.09 97.7867779,36.541 97.7867779,37.443 L97.7867779,38.591 C97.7867779,39.493 97.2537779,39.944 96.3107779,39.944 C92.2517779,39.944 90.2837779,44.331 90.2837779,48.431 L90.2837779,55.647 C90.2837779,56.549 89.8327779,57 88.9307779,57 L87.6597779,57 C86.7987779,57 86.3067779,56.549 86.3067779,55.647 Z M99.7760372,51.342 C99.7760372,44.905 107.853037,44.208 112.158037,44.208 L113.224037,44.208 L113.224037,43.675 C113.224037,40.272 111.256037,39.124 108.714037,39.124 C106.664037,39.124 104.983037,39.903 104.040037,40.436 C103.261037,40.805 102.646037,40.682 102.195037,39.944 L101.867037,39.37 C101.457037,38.591 101.580037,37.935 102.318037,37.525 C103.548037,36.828 105.885037,35.762 109.042037,35.762 C114.208037,35.762 117.201037,38.632 117.201037,43.88 L117.201037,55.647 C117.201037,56.549 116.709037,57 115.848037,57 L114.823037,57 C113.962037,57 113.470037,56.549 113.470037,55.647 L113.470037,54.417 C113.470037,53.638 113.593037,53.146 113.593037,53.146 L113.511037,53.146 C113.511037,53.146 111.584037,57.492 106.746037,57.492 C103.097037,57.492 99.7760372,55.237 99.7760372,51.342 Z M103.794037,51.014 C103.794037,52.654 105.106037,54.335 107.648037,54.335 C111.133037,54.335 113.265037,50.809 113.265037,47.734 L113.265037,46.832 L112.199037,46.832 C109.288037,46.832 103.794037,47.078 103.794037,51.014 Z M123.413297,55.647 L123.413297,37.607 C123.413297,36.705 123.905296,36.254 124.766296,36.254 L125.914296,36.254 C126.816296,36.254 127.267297,36.705 127.267297,37.607 L127.267297,39.452 C127.267297,40.067 127.144296,40.641 127.144296,40.641 L127.226297,40.641 C128.046296,38.837 130.547297,35.762 135.098297,35.762 C139.977296,35.762 142.191296,38.427 142.191296,43.716 L142.191296,55.647 C142.191296,56.549 141.740296,57 140.838297,57 L139.567296,57 C138.706297,57 138.214296,56.549 138.214296,55.647 L138.214296,44.618 C138.214296,41.707 137.640297,39.411 134.319297,39.411 C130.301296,39.411 127.390296,42.773 127.390296,47.078 L127.390296,55.647 C127.390296,56.549 126.939296,57 126.037296,57 L124.766296,57 C123.905296,57 123.413297,56.549 123.413297,55.647 Z M147.091556,46.627 C147.091556,40.026 151.560556,35.762 157.464556,35.762 C163.204556,35.762 166.402556,39.862 166.402556,45.643 C166.402556,46.381 165.828556,47.037 165.008556,47.037 L151.150556,47.037 C151.396556,51.547 154.635556,54.048 158.325556,54.048 C160.580556,54.048 162.343556,53.105 163.286556,52.408 C164.065556,51.998 164.680556,52.08 165.131556,52.859 L165.500556,53.474 C165.910556,54.171 165.787556,54.868 165.090556,55.278 C163.860556,56.139 161.400556,57.492 158.079556,57.492 C151.560556,57.492 147.091556,52.777 147.091556,46.627 Z M151.314556,44.413 L162.425556,44.413 C162.302556,40.764 160.129556,38.878 157.382556,38.878 C154.348556,38.878 151.888556,40.928 151.314556,44.413 Z M172.368815,49.538 L172.368815,39.698 L170.933815,39.698 C170.072815,39.698 169.621815,39.206 169.621815,38.345 L169.621815,37.812 C169.621815,36.951 170.072815,36.459 170.974815,36.459 L172.450815,36.459 L172.450815,31.908 C172.450815,31.006 172.942815,30.555 173.803815,30.555 L174.992815,30.555 C175.894815,30.555 176.345815,31.006 176.345815,31.908 L176.345815,36.459 L179.953815,36.459 C180.855815,36.459 181.306815,36.951 181.306815,37.812 L181.306815,38.345 C181.306815,39.206 180.855815,39.698 179.994815,39.698 L176.345815,39.698 L176.345815,48.923 C176.345815,52.859 178.764815,53.474 180.281815,53.597 C181.347815,53.679 181.716815,54.007 181.716815,54.95 L181.716815,55.811 C181.716815,56.754 181.183815,57.164 180.076815,57.164 C175.976815,57.164 172.368815,54.786 172.368815,49.538 Z M197.175334,51.342 L197.175334,29.407 C197.175334,28.505 197.626334,28.054 198.528334,28.054 L199.799334,28.054 C200.660334,28.054 201.152334,28.505 201.152334,29.407 L201.152334,50.85 C201.152334,53.187 202.177334,53.515 203.038334,53.597 C203.653334,53.679 204.104334,54.007 204.104334,54.786 L204.104334,55.77 C204.104334,56.631 203.735334,57.164 202.710334,57.164 C200.496334,57.164 197.175334,56.549 197.175334,51.342 Z M207.200593,46.586 C207.200593,40.313 212.161593,35.762 218.352593,35.762 C224.543593,35.762 229.545593,40.313 229.545593,46.586 C229.545593,52.9 224.543593,57.492 218.352593,57.492 C212.161593,57.492 207.200593,52.9 207.200593,46.586 Z M211.218593,46.586 C211.218593,50.932 214.457593,54.048 218.352593,54.048 C222.288593,54.048 225.486593,50.932 225.486593,46.586 C225.486593,42.281 222.288593,39.206 218.352593,39.206 C214.457593,39.206 211.218593,42.281 211.218593,46.586 Z M233.338852,46.627 C233.338852,40.477 237.930852,35.762 244.408852,35.762 C247.893852,35.762 250.148852,37.115 251.255852,37.976 C251.952852,38.427 251.993852,39.124 251.501852,39.821 L251.091852,40.436 C250.599852,41.174 250.025852,41.215 249.246852,40.764 C248.385852,40.149 246.786852,39.206 244.613852,39.206 C240.431852,39.206 237.397852,42.322 237.397852,46.586 C237.397852,50.809 240.431852,54.048 244.695852,54.048 C247.196852,54.048 249.000852,52.9 249.984852,52.162 C250.722852,51.67 251.337852,51.752 251.829852,52.531 L252.157852,53.146 C252.567852,53.843 252.444852,54.499 251.788852,54.95 C250.640852,55.893 248.139852,57.492 244.408852,57.492 C237.889852,57.492 233.338852,52.859 233.338852,46.627 Z M255.541112,51.342 C255.541112,44.905 263.618112,44.208 267.923112,44.208 L268.989112,44.208 L268.989112,43.675 C268.989112,40.272 267.021112,39.124 264.479112,39.124 C262.429112,39.124 260.748112,39.903 259.805112,40.436 C259.026112,40.805 258.411112,40.682 257.960112,39.944 L257.632112,39.37 C257.222112,38.591 257.345112,37.935 258.083112,37.525 C259.313112,36.828 261.650112,35.762 264.807112,35.762 C269.973112,35.762 272.966112,38.632 272.966112,43.88 L272.966112,55.647 C272.966112,56.549 272.474112,57 271.613112,57 L270.588112,57 C269.727112,57 269.235112,56.549 269.235112,55.647 L269.235112,54.417 C269.235112,53.638 269.358112,53.146 269.358112,53.146 L269.276112,53.146 C269.276112,53.146 267.349112,57.492 262.511112,57.492 C258.862112,57.492 255.541112,55.237 255.541112,51.342 Z M259.559112,51.014 C259.559112,52.654 260.871112,54.335 263.413112,54.335 C266.898112,54.335 269.030112,50.809 269.030112,47.734 L269.030112,46.832 L267.964112,46.832 C265.053112,46.832 259.559112,47.078 259.559112,51.014 Z M279.916371,49.538 L279.916371,39.698 L278.481371,39.698 C277.620371,39.698 277.169371,39.206 277.169371,38.345 L277.169371,37.812 C277.169371,36.951 277.620371,36.459 278.522371,36.459 L279.998371,36.459 L279.998371,31.908 C279.998371,31.006 280.490371,30.555 281.351371,30.555 L282.540371,30.555 C283.442371,30.555 283.893371,31.006 283.893371,31.908 L283.893371,36.459 L287.501371,36.459 C288.403371,36.459 288.854371,36.951 288.854371,37.812 L288.854371,38.345 C288.854371,39.206 288.403371,39.698 287.542371,39.698 L283.893371,39.698 L283.893371,48.923 C283.893371,52.859 286.312371,53.474 287.829371,53.597 C288.895371,53.679 289.264371,54.007 289.264371,54.95 L289.264371,55.811 C289.264371,56.754 288.731371,57.164 287.624371,57.164 C283.524371,57.164 279.916371,54.786 279.916371,49.538 Z M295.02563,32.113 C294.12363,32.113 293.67263,31.621 293.67263,30.76 L293.67263,29.407 C293.67263,28.505 294.12363,28.054 295.02563,28.054 L296.41963,28.054 C297.28063,28.054 297.77263,28.505 297.77263,29.407 L297.77263,30.76 C297.77263,31.621 297.28063,32.113 296.41963,32.113 L295.02563,32.113 Z M293.71363,55.647 L293.71363,37.607 C293.71363,36.705 294.20563,36.254 295.06663,36.254 L296.33763,36.254 C297.23963,36.254 297.69063,36.705 297.69063,37.607 L297.69063,55.647 C297.69063,56.549 297.23963,57 296.33763,57 L295.06663,57 C294.20563,57 293.71363,56.549 293.71363,55.647 Z M302.877889,46.627 C302.877889,40.026 307.346889,35.762 313.250889,35.762 C318.990889,35.762 322.188889,39.862 322.188889,45.643 C322.188889,46.381 321.61489,47.037 320.79489,47.037 L306.93689,47.037 C307.182889,51.547 310.421889,54.048 314.111889,54.048 C316.36689,54.048 318.129889,53.105 319.072889,52.408 C319.851889,51.998 320.466889,52.08 320.91789,52.859 L321.286889,53.474 C321.696889,54.171 321.57389,54.868 320.87689,55.278 C319.646889,56.139 317.18689,57.492 313.865889,57.492 C307.346889,57.492 302.877889,52.777 302.877889,46.627 Z M307.100889,44.413 L318.211889,44.413 C318.088889,40.764 315.915889,38.878 313.168889,38.878 C310.134889,38.878 307.67489,40.928 307.100889,44.413 Z M336.171408,55.442 L345.683408,29.161 C345.929408,28.382 346.421408,28.054 347.200408,28.054 L349.168408,28.054 C349.906408,28.054 350.439408,28.382 350.685408,29.161 L360.197408,55.442 C360.525408,56.385 360.074408,57 359.090408,57 L357.696408,57 C356.917408,57 356.425408,56.631 356.179408,55.893 L353.596408,48.677 L342.690408,48.677 L340.148408,55.893 C339.943408,56.631 339.410408,57 338.672408,57 L337.278408,57 C336.253408,57 335.843408,56.385 336.171408,55.442 Z M343.756408,45.315 L352.530408,45.315 L349.332408,36.131 C348.840408,34.655 348.225408,32.031 348.225408,32.031 L348.143408,32.031 C348.143408,32.031 347.487408,34.655 346.995408,36.131 L343.756408,45.315 Z M364.359667,55.606 L366.491667,29.325 C366.573667,28.505 367.065667,28.054 367.885667,28.054 L369.730667,28.054 C370.509667,28.054 371.001667,28.382 371.247667,29.12 L377.520667,43.716 C378.176667,45.315 378.955667,47.611 378.955667,47.611 L379.037667,47.611 C379.037667,47.611 379.775667,45.315 380.431667,43.716 L386.704667,29.12 C386.950667,28.382 387.442667,28.054 388.221667,28.054 L390.066667,28.054 C390.886667,28.054 391.378667,28.505 391.460667,29.325 L393.592667,55.606 C393.633667,56.508 393.182667,57 392.280667,57 L390.968667,57 C390.107667,57 389.656667,56.549 389.574667,55.688 L388.262667,38.755 C388.098667,36.992 388.180667,34.491 388.180667,34.491 L388.098667,34.491 C388.098667,34.491 387.196667,37.156 386.540667,38.755 L381.210667,50.727 C380.923667,51.465 380.431667,51.793 379.652667,51.793 L378.299667,51.793 C377.520667,51.793 377.028667,51.465 376.741667,50.727 L371.411667,38.755 C370.796667,37.197 369.853667,34.409 369.853667,34.409 L369.771667,34.409 C369.771667,34.409 369.853667,36.992 369.689667,38.755 L368.377667,55.688 C368.295667,56.549 367.844667,57 367.024667,57 L365.671667,57 C364.769667,57 364.318667,56.508 364.359667,55.606 Z M398.943927,42.363 C398.943927,33.958 405.011927,27.562 413.662927,27.562 C418.623927,27.562 421.821927,29.489 423.256927,30.555 C423.912927,31.047 423.953927,31.703 423.502927,32.441 L422.969927,33.261 C422.477927,33.999 421.862927,34.081 421.083927,33.589 C419.853927,32.769 417.311927,31.293 413.826927,31.293 C407.102927,31.293 403.125927,36.213 403.125927,42.322 C403.125927,48.472 407.184927,53.761 413.867927,53.761 C417.680927,53.761 420.468927,51.916 421.739927,50.932 C422.436927,50.399 423.092927,50.399 423.625927,51.096 L424.240927,51.916 C424.732927,52.572 424.691927,53.228 424.035927,53.802 C422.559927,55.032 419.033927,57.492 413.744927,57.492 C404.806927,57.492 398.943927,50.85 398.943927,42.363 Z" id="IntranetlocatieAMC" fill="#131516" fill-rule="nonzero"></path>
        </g>
    </g>
</svg>