<svg width="40" height="40" viewBox="0 0 40 40" xmlns="http://www.w3.org/2000/svg" xmlns:xlink="http://www.w3.org/1999/xlink">
    <title>
        8E143F4B-D157-43A1-B4CB-023AB284DD98@1.00x
    </title>
    <defs>
        <path d="M48 39.59c0 1.024-.455 3.012-.88 3.95-.597 1.392-2.188 2.3-3.467 3.011-1.676.91-3.38 1.449-5.284 1.449-2.642 0-5.028-1.08-7.443-1.96-1.733-.625-3.409-1.392-4.971-2.358-4.83-2.983-10.654-8.807-13.637-13.637-.966-1.562-1.733-3.238-2.358-4.971C9.08 22.659 8 20.273 8 17.63c0-1.904.54-3.608 1.449-5.284.71-1.279 1.62-2.87 3.011-3.466.938-.426 2.926-.881 3.95-.881.198 0 .397 0 .596.085.596.2 1.221 1.591 1.505 2.16.91 1.619 1.79 3.266 2.728 4.857.454.739 1.306 1.648 1.306 2.529 0 1.733-5.142 4.261-5.142 5.795 0 .767.71 1.762 1.108 2.443 2.87 5.17 6.45 8.75 11.62 11.62.681.397 1.676 1.108 2.443 1.108 1.534 0 4.062-5.142 5.795-5.142.881 0 1.79.852 2.529 1.306 1.59.938 3.238 1.819 4.858 2.728.568.284 1.96.909 2.159 1.505.085.2.085.398.085.597z" id="a"/>
    </defs>
    <use fill="#131516" xlink:href="#a" transform="translate(-8 -8)" fill-rule="evenodd"/>
</svg>
