<?xml version="1.0" encoding="UTF-8"?>
<svg width="288px" height="48px" viewBox="0 0 288 48" version="1.1" xmlns="http://www.w3.org/2000/svg" xmlns:xlink="http://www.w3.org/1999/xlink">
    <!-- Generator: Sketch 53.2 (72643) - https://sketchapp.com -->
    <title>Logo/default</title>
    <desc>Created with Sketch.</desc>
    <g id="Logo/default" stroke="none" stroke-width="1" fill="none" fill-rule="evenodd">
        <path d="M65.362621,20.8763865 L54.2875492,20.8763865 L54.2875492,18.1382292 C54.2875492,14.9815551 56.5129885,12.8598472 59.8242621,12.8598472 C63.1887575,12.8598472 65.362621,14.9319371 65.362621,18.1382292 L65.362621,20.8763865 Z M59.8242621,10.1254652 C55.0200348,10.1254652 51.5331841,13.495173 51.5331841,18.1382292 L51.5331841,30.3873978 C51.5331841,30.8544539 51.9178076,31.2330607 52.3935117,31.2330607 L53.4272216,31.2330607 C53.902377,31.2330607 54.2875492,30.8544539 54.2875492,30.3873978 L54.2875492,23.8426787 L65.362621,23.8426787 L65.362621,30.3873978 C65.362621,30.8544539 65.7472445,31.2330607 66.2223999,31.2330607 L67.2566585,31.2330607 C67.7318139,31.2330607 68.1169861,30.8544539 68.1169861,30.3873978 L68.1169861,18.1382292 C68.1169861,13.4207461 64.7074991,10.1254652 59.8242621,10.1254652 L59.8242621,10.1254652 Z" id="Fill-1" fill="#003741"></path>
        <path d="M87.5310355,15.0406652 C85.483368,15.0406652 83.7243054,15.8760809 82.5879926,17.3338787 C81.4582639,15.8917213 79.673962,15.0406652 77.6400115,15.0406652 C74.0280622,15.0406652 71.3038744,17.718418 71.3038744,21.2688 L71.3038744,30.3866427 C71.3038744,30.8531596 71.6890465,31.2317663 72.164202,31.2317663 L73.2264432,31.2317663 C73.7010499,31.2317663 74.0862221,30.8531596 74.0862221,30.3866427 L74.0862221,21.2688 C74.0862221,19.2123506 75.5479011,17.7761258 77.6400115,17.7761258 C79.7496797,17.7761258 81.2223322,19.2123506 81.2223322,21.2688 L81.2223322,30.3866427 C81.2223322,30.8531596 81.6075044,31.2317663 82.0826598,31.2317663 L83.1158211,31.2317663 C83.5909765,31.2317663 83.9761487,30.8531596 83.9761487,30.3866427 L83.9761487,21.2688 C83.9761487,19.2123506 85.4383764,17.7761258 87.5310355,17.7761258 C89.6396063,17.7761258 91.1122589,19.2123506 91.1122589,21.2688 L91.1122589,30.3866427 C91.1122589,30.8531596 91.497431,31.2317663 91.9725865,31.2317663 L93.0068451,31.2317663 C93.4825492,31.2317663 93.8671727,30.8531596 93.8671727,30.3866427 L93.8671727,21.2688 C93.8671727,17.6596315 91.2027908,15.0406652 87.5310355,15.0406652" id="Fill-3" fill="#003741"></path>
        <path d="M104.134151,21.4754697 C100.786116,21.0138067 100.167207,20.5208629 100.15349,19.7161888 C100.146357,19.3402787 100.299987,18.9929528 100.609442,18.6839191 C101.228899,18.0642337 102.387159,17.6937169 103.707279,17.6937169 C105.185967,17.6937169 107.077261,18.1089978 107.689038,20.0877843 C107.799871,20.4437393 108.133467,20.6869753 108.512055,20.6869753 L109.574296,20.6869753 C109.837662,20.6869753 110.086213,20.5688629 110.249171,20.3660764 C110.412128,20.1638292 110.471934,19.8984809 110.41158,19.6466157 C109.708174,16.7196944 107.254485,15.040773 103.679297,15.040773 C99.5384215,15.040773 97.3711421,17.4003236 97.3711421,19.7474697 C97.4397269,23.2379865 101.175129,23.7729978 103.724837,24.1381213 C107.607833,24.6839191 107.960634,25.6077843 107.989714,26.4674697 C108.027572,26.9674247 107.86681,27.4183011 107.531018,27.7672449 C106.826516,28.482391 105.553582,28.9100764 104.125921,28.9100764 C102.575356,28.9100764 99.8934163,28.5433348 99.3507735,26.0888629 C99.2651797,25.700009 98.9151229,25.4222562 98.5101983,25.4222562 L97.477037,25.4222562 C97.224645,25.4222562 96.9854213,25.5312 96.8213664,25.719964 C96.658409,25.9087281 96.5876295,26.1578966 96.6271343,26.4022112 C97.1588036,29.6333124 99.972426,31.5619416 104.153903,31.5619416 C106.398546,31.5619416 108.304106,30.8861663 109.524367,29.6543461 C110.350676,28.8086831 110.804433,27.6065258 110.770415,26.3542112 C110.769318,26.348818 110.769318,26.3423461 110.768769,26.3364135 C110.57728,22.4214472 106.230651,21.7834247 104.134151,21.4754697" id="Fill-5" fill="#003741"></path>
        <path d="M119.660321,18.1049528 C120.135476,18.1049528 120.5201,17.7263461 120.5201,17.2598292 L120.5201,16.2432 C120.5201,15.7756045 120.135476,15.3975371 119.660321,15.3975371 L116.636555,15.3975371 L116.636555,13.2218966 C116.636555,12.7553798 116.251931,12.376773 115.776776,12.376773 L114.742517,12.376773 C114.266813,12.376773 113.882189,12.7553798 113.882189,13.2218966 L113.882189,15.3975371 L112.787576,15.3975371 C112.311323,15.3975371 111.9267,15.7756045 111.9267,16.2432 L111.9267,17.2598292 C111.9267,17.7263461 112.311323,18.1049528 112.787576,18.1049528 L113.882189,18.1049528 L113.882189,25.4980315 C113.882189,27.4282787 114.48793,28.9923236 115.634119,30.0229753 C116.538341,30.8357393 117.730619,31.2580315 119.10835,31.2580315 C119.314105,31.2580315 119.524249,31.2477843 119.737684,31.2294472 C120.181016,31.1900764 120.5201,30.8249528 120.5201,30.3870202 L120.5201,29.4523685 C120.5201,29.2220764 120.425178,29.0020315 120.255637,28.842391 C120.087192,28.6832899 119.858942,28.602391 119.625754,28.6077843 C118.662824,28.6460764 117.933081,28.4352 117.450793,27.9805483 C116.778114,27.3457618 116.636555,26.2795146 116.636555,25.4980315 L116.636555,18.1049528 L119.660321,18.1049528 Z" id="Fill-7" fill="#003741"></path>
        <path d="M148.143364,15.1012315 C146.219149,14.8828045 144.481485,15.3045573 143.066444,16.3271191 L143.066444,16.2440629 C143.066444,15.7764674 142.681272,15.3984 142.206116,15.3984 L141.144424,15.3984 C140.669268,15.3984 140.284096,15.7764674 140.284096,16.2440629 L140.284096,30.3873438 C140.284096,30.8544 140.669268,31.2324674 141.144424,31.2324674 L142.206116,31.2324674 C142.681272,31.2324674 143.066444,30.8544 143.066444,30.3873438 L143.066444,21.8460404 C143.066444,20.5834787 143.542697,19.4417258 144.398635,18.6904449 C145.194218,17.9321528 146.463311,17.5853663 147.969982,17.7169618 C148.217436,17.7401528 148.449527,17.6581753 148.626201,17.4985348 C148.804522,17.3378157 148.906027,17.1118382 148.906027,16.8745348 L148.906027,15.9415011 C148.906027,15.5111191 148.577917,15.1492315 148.143364,15.1012315" id="Fill-9" fill="#003741"></path>
        <path d="M202.576094,15.0406652 C200.529524,15.0406652 198.769912,15.8760809 197.633599,17.3338787 C196.50442,15.8917213 194.719569,15.0406652 192.686167,15.0406652 C189.073669,15.0406652 186.349481,17.718418 186.349481,21.2688 L186.349481,30.3866427 C186.349481,30.8531596 186.734653,31.2317663 187.209809,31.2317663 L188.271501,31.2317663 C188.746657,31.2317663 189.131829,30.8531596 189.131829,30.3866427 L189.131829,21.2688 C189.131829,19.2123506 190.592959,17.7761258 192.686167,17.7761258 C194.794738,17.7761258 196.268488,19.2123506 196.268488,21.2688 L196.268488,30.3866427 C196.268488,30.8531596 196.653111,31.2317663 197.128267,31.2317663 L198.161977,31.2317663 C198.636583,31.2317663 199.021756,30.8531596 199.021756,30.3866427 L199.021756,21.2688 C199.021756,19.2123506 200.483983,17.7761258 202.576094,17.7761258 C204.685213,17.7761258 206.157866,19.2123506 206.157866,21.2688 L206.157866,30.3866427 C206.157866,30.8531596 206.542489,31.2317663 207.018193,31.2317663 L208.051903,31.2317663 C208.527607,31.2317663 208.912231,30.8531596 208.912231,30.3866427 L208.912231,21.2688 C208.912231,17.6596315 206.247849,15.0406652 202.576094,15.0406652" id="Fill-11" fill="#003741"></path>
        <path d="M235.159794,10.4819596 L234.125536,10.4819596 C233.65038,10.4819596 233.265208,10.8605663 233.265208,11.3270831 L233.265208,23.5762517 C233.265208,26.7825438 231.091345,28.8546337 227.727398,28.8546337 C224.416124,28.8546337 222.190136,26.7329258 222.190136,23.5762517 L222.190136,11.3270831 C222.190136,10.8605663 221.805513,10.4819596 221.329809,10.4819596 L220.296099,10.4819596 C219.820943,10.4819596 219.435771,10.8605663 219.435771,11.3270831 L219.435771,23.5762517 C219.435771,28.2193079 222.922622,31.5890157 227.727398,31.5890157 C232.610086,31.5890157 236.019573,28.2942742 236.019573,23.5762517 L236.019573,11.3270831 C236.019573,10.8605663 235.634401,10.4819596 235.159794,10.4819596" id="Fill-13" fill="#003741"></path>
        <path d="M258.151775,9.98793708 C255.819892,9.98793708 253.695958,11.1038022 252.390104,12.9294202 C251.069435,11.1038022 248.949342,9.98793708 246.641053,9.98793708 C242.700445,9.98793708 239.494518,13.139218 239.494518,17.0121169 L239.494518,30.3873978 C239.494518,30.8544539 239.880238,31.2325213 240.354845,31.2325213 L241.389104,31.2325213 C241.863711,31.2325213 242.248883,30.8544539 242.248883,30.3873978 L242.248883,17.0121169 C242.248883,14.6315326 244.219735,12.6948135 246.641053,12.6948135 C249.047556,12.6948135 251.005789,14.6315326 251.005789,17.0121169 L251.005789,30.3873978 C251.005789,30.8544539 251.390961,31.2325213 251.866665,31.2325213 L252.900924,31.2325213 C253.37553,31.2325213 253.760702,30.8544539 253.760702,30.3873978 L253.760702,17.0121169 C253.760702,14.5910831 255.689855,12.6948135 258.151775,12.6948135 C260.558278,12.6948135 262.516511,14.6315326 262.516511,17.0121169 L262.516511,30.3873978 C262.516511,30.8544539 262.901135,31.2325213 263.376839,31.2325213 L264.411097,31.2325213 C264.885704,31.2325213 265.271425,30.8544539 265.271425,30.3873978 L265.271425,17.0121169 C265.271425,13.139218 262.07702,9.98793708 258.151775,9.98793708" id="Fill-15" fill="#003741"></path>
        <path d="M180.275887,26.1221393 C179.81774,26.9510831 179.179627,27.612836 178.378557,28.0885213 C177.575841,28.5658247 176.665035,28.8074427 175.673024,28.8074427 C174.680465,28.8074427 173.770208,28.5658247 172.967492,28.0885213 C172.163678,27.611218 171.519529,26.9500045 171.054799,26.1221393 C170.58952,25.2931955 170.352491,24.3499146 170.352491,23.3176449 C170.352491,22.2864539 170.588971,21.3383191 171.05425,20.4991281 C171.518981,19.663173 172.16258,18.9971056 172.967492,18.5176449 C173.771854,18.0408809 174.681563,17.7992629 175.673024,17.7992629 C176.663937,17.7992629 177.574195,18.0408809 178.378557,18.5176449 C179.180176,18.9949483 179.818289,19.6615551 180.275887,20.4980494 C180.732387,21.3372404 180.963381,22.2864539 180.963381,23.3176449 C180.963381,24.3504539 180.732387,25.2931955 180.275887,26.1221393 M182.848091,19.1389483 C182.120543,17.8941843 181.119205,16.9002067 179.870413,16.183982 C178.622719,15.4682966 177.210421,15.1058697 175.673024,15.1058697 C174.136176,15.1058697 172.714551,15.4682966 171.445458,16.183982 C170.178011,16.8996674 169.170638,17.8931056 168.452418,19.1389483 C167.7331,20.3842517 167.368778,21.7897348 167.368778,23.3176449 C167.368778,24.848791 167.707861,26.2542742 168.3767,27.4968809 C169.04499,28.7411056 169.976646,29.7313079 171.144234,30.4372854 C172.31237,31.1432629 173.634684,31.5013753 175.07277,31.5013753 C175.127638,31.5013753 175.182506,31.4949034 175.237374,31.494364 C175.287303,31.4954427 175.336684,31.5013753 175.387163,31.5013753 C176.346253,31.5013753 177.261997,31.3244764 178.112448,31.0170607 C178.216697,30.9825438 178.324238,30.9539596 178.426292,30.9151281 C178.634241,30.8336899 178.861943,30.7209708 179.092388,30.5931506 C179.140671,30.5678022 179.188955,30.5419146 179.236141,30.5154876 C179.240531,30.5133303 179.244371,30.5106337 179.248212,30.5084764 C179.931317,30.1314876 180.530473,29.6396225 181.068178,29.0895101 L181.068178,30.4847461 C181.068178,30.9669034 181.467067,31.3589933 181.958134,31.3589933 L183.057137,31.3589933 C183.548753,31.3589933 183.946545,30.9669034 183.946545,30.4847461 L183.946545,29.9589034 L183.946545,24.3310382 L183.946545,23.3176449 C183.946545,21.7897348 183.577833,20.3842517 182.848091,19.1389483" id="Fill-17" fill="#003741"></path>
        <path d="M152.063396,23.3562607 C152.063396,20.2794067 154.434235,17.7753169 157.349912,17.7753169 C160.263943,17.7753169 162.635879,20.2794067 162.635879,23.3562607 C162.635879,26.3878112 160.263943,28.8541483 157.349912,28.8541483 C154.434235,28.8541483 152.063396,26.3878112 152.063396,23.3562607 M164.529916,9.10888989 L163.495658,9.10888989 C163.020502,9.10888989 162.635879,9.4869573 162.635879,9.95455281 L162.635879,17.1421483 C161.214802,15.8100135 159.341066,15.0409348 157.349912,15.0409348 C152.915494,15.0409348 149.308483,18.7709124 149.308483,23.3562607 C149.308483,27.6169348 152.50618,31.1257888 156.579568,31.5221933 L156.579019,31.5238112 C156.833057,31.5475416 157.08929,31.5621034 157.349912,31.5621034 C157.604499,31.5621034 157.857439,31.5491596 158.108185,31.5243506 C162.159626,31.1516764 165.334279,27.8245753 165.384757,23.7559011 L165.390244,23.7451146 L165.390244,9.95455281 C165.390244,9.4869573 165.005072,9.10888989 164.529916,9.10888989" id="Fill-19" fill="#003741"></path>
        <path d="M129.684674,17.610391 C131.935901,17.610391 133.894134,19.101627 134.648566,21.2734921 L124.73779,21.2734921 C125.471921,19.1021663 127.423022,17.610391 129.684674,17.610391 L129.684674,17.610391 Z M134.785736,27.0405034 C134.448847,26.7983461 133.978081,26.8490427 133.706486,27.1613124 C132.820919,28.1817169 131.55018,28.6892225 129.85202,28.6892225 C127.049372,28.6892225 124.859048,26.7179865 124.462353,23.9814472 L136.864678,23.9814472 C137.334895,23.9814472 137.717873,23.6093124 137.725006,23.1476494 C137.758475,21.0086831 136.828465,18.7845034 135.237847,17.1967281 C133.738309,15.6995596 131.765262,14.8749303 129.684674,14.8749303 C125.250255,14.8749303 121.643244,18.6049079 121.643244,23.1907955 C121.643244,27.7923236 125.248609,31.3960989 129.85202,31.3960989 C132.39295,31.3960989 134.436776,30.5089079 135.840296,28.8601888 C136.142617,28.5053124 136.078422,27.9697618 135.697639,27.6963236 L134.785736,27.0405034 Z" id="Fill-21" fill="#003741"></path>
        <path d="M286.162242,24.9112989 C285.785849,24.6869393 285.292587,24.7969618 285.062691,25.1664 C283.650941,27.4353438 281.257058,28.8548494 278.652482,28.8548494 C274.413393,28.8548494 270.963853,25.2300404 270.963853,20.775209 C270.963853,16.3344 274.413393,12.7214562 278.652482,12.7214562 C281.383254,12.7214562 283.845173,14.1932764 285.203701,16.5371865 C285.416039,16.9028494 285.891195,17.027973 286.270332,16.8327371 L287.301298,16.3009618 C287.713355,16.0879281 287.850525,15.5825798 287.621178,15.184018 C285.7853,11.9944449 282.438362,10.0145798 278.652482,10.0145798 C272.894103,10.0145798 268.209487,14.8415461 268.209487,20.775209 C268.209487,26.7228944 272.894103,31.5611865 278.652482,31.5611865 C282.223829,31.5611865 285.5362,29.6223101 287.43737,26.5772764 C287.667267,26.2094562 287.526805,25.7251416 287.152606,25.5018607 L286.162242,24.9112989 Z" id="Fill-23" fill="#003741"></path>
        <path d="M70.1340922,38.4102472 L69.6655209,38.4102472 C69.5058555,38.4102472 69.3763674,38.5375281 69.3763674,38.6944719 L69.3763674,39.477573 C69.3763674,39.6339775 69.5058555,39.7612584 69.6655209,39.7612584 L70.1340922,39.7612584 C70.2937576,39.7612584 70.4237943,39.6339775 70.4237943,39.477573 L70.4237943,38.6944719 C70.4237943,38.5375281 70.2937576,38.4102472 70.1340922,38.4102472" id="Fill-26" fill="#F07814"></path>
        <path d="M100.679233,38.4102472 L100.210662,38.4102472 C100.050997,38.4102472 99.9215087,38.5375281 99.9215087,38.6944719 L99.9215087,39.477573 C99.9215087,39.6339775 100.050997,39.7612584 100.210662,39.7612584 L100.679233,39.7612584 C100.838899,39.7612584 100.968387,39.6339775 100.968387,39.477573 L100.968387,38.6944719 C100.968387,38.5375281 100.838899,38.4102472 100.679233,38.4102472" id="Fill-28" fill="#F07814"></path>
        <path d="M116.583388,38.4102472 L116.114816,38.4102472 C115.955151,38.4102472 115.825663,38.5375281 115.825663,38.6944719 L115.825663,39.477573 C115.825663,39.6339775 115.955151,39.7612584 116.114816,39.7612584 L116.583388,39.7612584 C116.743602,39.7612584 116.872541,39.6339775 116.872541,39.477573 L116.872541,38.6944719 C116.872541,38.5375281 116.743602,38.4102472 116.583388,38.4102472" id="Fill-30" fill="#F07814"></path>
        <path d="M158.232845,38.4102472 L157.764274,38.4102472 C157.604608,38.4102472 157.47512,38.5375281 157.47512,38.6944719 L157.47512,39.477573 C157.47512,39.6339775 157.604608,39.7612584 157.764274,39.7612584 L158.232845,39.7612584 C158.392511,39.7612584 158.521999,39.6339775 158.521999,39.477573 L158.521999,38.6944719 C158.521999,38.5375281 158.392511,38.4102472 158.232845,38.4102472" id="Fill-32" fill="#F07814"></path>
        <path d="M58.5598329,38.4102472 L58.0912616,38.4102472 C57.9315962,38.4102472 57.8021082,38.5375281 57.8021082,38.6944719 L57.8021082,44.2468315 C57.8021082,45.7364494 56.7535839,46.7374382 55.1914967,46.7374382 C53.6294096,46.7374382 52.5803366,45.7364494 52.5803366,44.2468315 L52.5803366,38.6944719 C52.5803366,38.5375281 52.4513972,38.4102472 52.2911832,38.4102472 L51.8231606,38.4102472 C51.6634952,38.4102472 51.5334584,38.5375281 51.5334584,38.6944719 L51.5334584,44.2468315 C51.5334584,46.2941124 53.0719524,47.7799551 55.1914967,47.7799551 C57.3456078,47.7799551 58.8489864,46.3275506 58.8489864,44.2468315 L58.8489864,38.6944719 C58.8489864,38.5375281 58.720047,38.4102472 58.5598329,38.4102472" id="Fill-34" fill="#F07814"></path>
        <path d="M64.1578331,40.4764045 C63.3518247,40.4764045 62.6330561,40.7406742 62.0909619,41.2190562 L62.0909619,40.9229663 C62.0909619,40.7654831 61.9614738,40.6382022 61.8018085,40.6382022 L61.3337859,40.6382022 C61.1741205,40.6382022 61.0440837,40.7654831 61.0440837,40.9229663 L61.0440837,47.3333933 C61.0440837,47.4908764 61.1741205,47.617618 61.3337859,47.617618 L61.8018085,47.617618 C61.9614738,47.617618 62.0909619,47.4908764 62.0909619,47.3333933 L62.0909619,43.461573 C62.0909619,42.3397753 62.9737853,41.4941124 64.1452135,41.4941124 C65.3791911,41.4941124 66.0590035,42.1930787 66.0590035,43.461573 L66.0590035,47.3333933 C66.0590035,47.4908764 66.1890403,47.617618 66.3487056,47.617618 L66.8167282,47.617618 C66.9763936,47.617618 67.1058817,47.4908764 67.1058817,47.3333933 L67.1058817,43.461573 C67.1058817,41.6208539 65.9756044,40.4764045 64.1578331,40.4764045" id="Fill-36" fill="#F07814"></path>
        <path d="M70.1340922,40.6386337 L69.6655209,40.6386337 C69.5058555,40.6386337 69.3763674,40.7659146 69.3763674,40.9228584 L69.3763674,47.3332854 C69.3763674,47.4902292 69.5058555,47.6169708 69.6655209,47.6169708 L70.1340922,47.6169708 C70.2937576,47.6169708 70.4237943,47.4902292 70.4237943,47.3332854 L70.4237943,40.9228584 C70.4237943,40.7659146 70.2937576,40.6386337 70.1340922,40.6386337" id="Fill-38" fill="#F07814"></path>
        <path d="M77.7067857,40.6381483 L77.2003556,40.6381483 C77.0812924,40.6381483 76.9732028,40.7109573 76.9304059,40.8209798 L74.9469338,45.9041258 L72.962913,40.8209798 C72.9195674,40.7109573 72.8125751,40.6381483 72.6924146,40.6381483 L72.1854358,40.6381483 C72.0910631,40.6381483 72.0010799,40.6845303 71.9473094,40.7616539 C71.8935389,40.8387775 71.8820167,40.9374742 71.9154861,41.0248449 L74.422946,47.4358112 C74.4662916,47.5458337 74.5732838,47.6181034 74.6928957,47.6181034 L75.2004231,47.6181034 C75.3194863,47.6181034 75.427576,47.5458337 75.4698242,47.4358112 L77.9772841,41.0248449 C78.0107535,40.9374742 77.9992312,40.8387775 77.9454608,40.7616539 C77.8916903,40.6845303 77.8022557,40.6381483 77.7067857,40.6381483" id="Fill-40" fill="#F07814"></path>
        <path d="M79.9009503,43.3768989 C80.2104048,42.2826067 81.1651051,41.5189213 82.2783734,41.5189213 C83.3878009,41.5189213 84.346342,42.2826067 84.6656727,43.3768989 L79.9009503,43.3768989 Z M82.2783734,40.4764045 C80.3245299,40.4764045 78.7350088,42.1235056 78.7350088,44.1470562 C78.7350088,46.1770787 80.3245299,47.7680899 82.3546397,47.7680899 C83.9940905,47.7680899 85.1715541,46.9375281 85.6686567,45.4301124 C85.697188,45.3432809 85.6823737,45.2483596 85.6280545,45.1750112 C85.5731867,45.1005843 85.4859468,45.0574382 85.3937689,45.0574382 L84.8999584,45.0574382 C84.7787005,45.0574382 84.6700622,45.1318652 84.6283626,45.2435056 C84.2569074,46.2347865 83.4915011,46.7374382 82.3546397,46.7374382 C80.9939175,46.7374382 79.9382604,45.7537079 79.7983474,44.4059326 L85.5331332,44.4059326 C85.6911525,44.4059326 85.8200919,44.2818876 85.8222866,44.1260225 C85.8371009,43.1832809 85.4266896,42.2017079 84.72493,41.5005843 C84.0637726,40.8404494 83.1946662,40.4764045 82.2783734,40.4764045 L82.2783734,40.4764045 Z" id="Fill-42" fill="#F07814"></path>
        <path d="M90.9605493,40.5033169 C90.0409644,40.399227 89.2168496,40.6268225 88.5705066,41.1650697 L88.5705066,40.9229124 C88.5705066,40.7654292 88.4410185,40.6386876 88.2813531,40.6386876 L87.7996135,40.6386876 C87.6399481,40.6386876 87.5099114,40.7654292 87.5099114,40.9229124 L87.5099114,47.3333393 C87.5099114,47.4902831 87.6399481,47.617564 87.7996135,47.617564 L88.2813531,47.617564 C88.4410185,47.617564 88.5705066,47.4902831 88.5705066,47.3333393 L88.5705066,43.4620584 C88.5705066,42.8617888 88.7982081,42.317609 89.2047787,41.9616539 C89.5866588,41.597609 90.1880102,41.430418 90.9023894,41.4929798 C90.9824964,41.5010697 91.0631521,41.4730247 91.1229581,41.4190921 C91.182764,41.3662382 91.2173308,41.2891146 91.2173308,41.2098337 L91.2173308,40.7853843 C91.2173308,40.6413843 91.1070464,40.5194966 90.9605493,40.5033169" id="Fill-44" fill="#F07814"></path>
        <path d="M95.1466356,43.3916225 C93.5483357,43.1715775 93.2635717,42.9288809 93.2558902,42.4990382 C93.2525981,42.3011056 93.3321564,42.1193528 93.4918218,41.9597124 C93.7963383,41.6549933 94.334043,41.4813303 94.9672178,41.4813303 C95.6717208,41.4813303 96.5726506,41.6814202 96.8683882,42.6365663 C96.9051496,42.7562966 97.0181774,42.8382742 97.1454707,42.8382742 L97.6266616,42.8382742 C97.7149988,42.8382742 97.7983979,42.7978247 97.8538144,42.730409 C97.9081336,42.6619146 97.9284347,42.5723865 97.9081336,42.4882517 C97.6014224,41.2100494 96.5243669,40.4771056 94.9540495,40.4771056 C93.1434111,40.4771056 92.1963923,41.4964315 92.1963923,42.5098247 C92.226021,44.0075326 93.8034711,44.2340494 94.989165,44.4033978 C96.641784,44.6358472 96.9918408,45.0247011 97.0088498,45.5489258 C97.0275049,45.8045663 96.9457518,46.0348584 96.7723695,46.2144539 C96.4349323,46.5569258 95.8308375,46.7629483 95.1576092,46.7629483 C94.4240263,46.7629483 93.1543847,46.5860494 92.8948598,45.4054652 C92.8657799,45.2749483 92.747814,45.1811056 92.6117418,45.1811056 L92.1431705,45.1811056 C92.0592228,45.1811056 91.978567,45.2183191 91.9231505,45.2814202 C91.867734,45.3450607 91.8446895,45.4291955 91.8578578,45.5117124 C92.0899487,46.9242067 93.3283157,47.767173 95.1696801,47.767173 C96.1594958,47.767173 96.9978763,47.4710831 97.5311916,46.9333753 C97.8878325,46.5682517 98.0837106,46.0494202 98.067799,45.5084764 L98.067799,45.5025438 C97.9843999,43.8085213 96.1402921,43.5377798 95.1466356,43.3916225" id="Fill-46" fill="#F07814"></path>
        <path d="M100.665571,40.6386337 L100.197,40.6386337 C100.037335,40.6386337 99.9078466,40.7659146 99.9078466,40.9228584 L99.9078466,47.3332854 C99.9078466,47.4902292 100.037335,47.6169708 100.197,47.6169708 L100.665571,47.6169708 C100.825237,47.6169708 100.954725,47.4902292 100.954725,47.3332854 L100.954725,40.9228584 C100.954725,40.7659146 100.825237,40.6386337 100.665571,40.6386337" id="Fill-48" fill="#F07814"></path>
        <path d="M105.883063,40.6386337 L104.411508,40.6386337 L104.411508,39.5529708 C104.411508,39.396027 104.282569,39.2687461 104.122354,39.2687461 L103.654332,39.2687461 C103.494666,39.2687461 103.365178,39.396027 103.365178,39.5529708 L103.365178,40.6386337 L102.767668,40.6386337 C102.608002,40.6386337 102.477966,40.7659146 102.477966,40.9228584 L102.477966,41.3834427 C102.477966,41.5409258 102.608002,41.6676674 102.767668,41.6676674 L103.365178,41.6676674 L103.365178,45.1177348 C103.365178,45.9639371 103.627995,46.6483416 104.125647,47.0954427 C104.517403,47.4470831 105.033709,47.6293753 105.633415,47.6293753 C105.723398,47.6293753 105.815027,47.6250607 105.908851,47.6164315 C106.058092,47.6034876 106.172217,47.4805213 106.172217,47.3332854 L106.172217,46.9104539 C106.172217,46.832791 106.140393,46.758364 106.083879,46.7049708 C106.026817,46.6510382 105.951648,46.6300045 105.871541,46.6262292 C105.408456,46.642409 105.050718,46.5393978 104.811494,46.3134202 C104.546483,46.0637124 104.411508,45.6613753 104.411508,45.1177348 L104.411508,41.6676674 L105.883063,41.6676674 C106.042729,41.6676674 106.172217,41.5409258 106.172217,41.3834427 L106.172217,40.9228584 C106.172217,40.7659146 106.042729,40.6386337 105.883063,40.6386337" id="Fill-50" fill="#F07814"></path>
        <path d="M109.947288,46.7002787 C109.931376,46.7002787 108.375325,46.6884135 108.375325,45.639964 C108.375325,45.1572674 108.53499,44.6254921 110.428479,44.4421213 C111.120911,44.3849528 111.884671,44.3218517 112.470111,44.0570427 L112.470111,45.0057169 C112.470111,46.1760539 111.202664,46.7002787 109.947288,46.7002787 M113.516989,46.2876944 L113.516989,42.665582 C113.516989,41.2951551 112.448164,40.4764584 110.656729,40.4764584 C109.066659,40.4764584 107.967108,41.2131775 107.640644,42.4973124 C107.619246,42.5819865 107.63845,42.6715146 107.693866,42.7405483 C107.748185,42.809582 107.832682,42.8500315 107.921568,42.8500315 L108.403307,42.8500315 C108.528955,42.8500315 108.641434,42.7691326 108.678744,42.6504809 C108.984358,41.6947955 109.923146,41.4941663 110.656729,41.4941663 C111.483587,41.4941663 112.470111,41.6969528 112.470111,42.665582 C112.470111,43.1644584 111.807308,43.3122337 110.326973,43.4529978 C109.418362,43.5338966 107.291136,43.7237393 107.291136,45.6529079 C107.291136,47.079964 108.667222,47.7293124 109.947288,47.7293124 C110.987582,47.7293124 111.886317,47.4494022 112.514005,46.9445933 C112.548023,47.134436 112.601794,47.3032449 112.675317,47.4553348 C112.723052,47.5545708 112.824557,47.6176719 112.936487,47.6176719 L113.41713,47.6176719 C113.513697,47.6176719 113.60368,47.5707506 113.657451,47.4925483 C113.710673,47.4143461 113.721646,47.3156494 113.686531,47.2282787 C113.595999,47.0055371 113.516989,46.5670652 113.516989,46.2876944" id="Fill-52" fill="#F07814"></path>
        <path d="M234.352853,46.7002787 C234.336941,46.7002787 232.78089,46.6884135 232.78089,45.639964 C232.78089,45.1572674 232.940555,44.6254921 234.834044,44.4421213 C235.526476,44.3849528 236.289688,44.3218517 236.875127,44.0570427 L236.875127,45.0057169 C236.875127,46.1760539 235.608229,46.7002787 234.352853,46.7002787 M237.922554,46.2876944 L237.922554,42.665582 C237.922554,41.2951551 236.85318,40.4764584 235.062294,40.4764584 C233.471676,40.4764584 232.372673,41.2131775 232.04621,42.4973124 C232.024811,42.5819865 232.043466,42.6715146 232.099431,42.7405483 C232.153202,42.809582 232.238247,42.8500315 232.327133,42.8500315 L232.808872,42.8500315 C232.93452,42.8500315 233.046999,42.7691326 233.08376,42.6504809 C233.389923,41.6947955 234.328163,41.4941663 235.062294,41.4941663 C235.889152,41.4941663 236.875127,41.6969528 236.875127,42.665582 C236.875127,43.1644584 236.212873,43.3122337 234.73199,43.4529978 C233.823927,43.5338966 231.696153,43.7237393 231.696153,45.6529079 C231.696153,47.079964 233.072787,47.7293124 234.352853,47.7293124 C235.393147,47.7293124 236.291334,47.4494022 236.91957,46.9445933 C236.95304,47.134436 237.007359,47.3032449 237.080882,47.4553348 C237.128617,47.5545708 237.230122,47.6176719 237.342053,47.6176719 L237.822695,47.6176719 C237.919262,47.6176719 238.008697,47.5707506 238.063016,47.4925483 C238.116238,47.4143461 238.127211,47.3156494 238.090999,47.2282787 C238.001015,47.0055371 237.922554,46.5670652 237.922554,46.2876944" id="Fill-54" fill="#F07814"></path>
        <path d="M116.583388,40.6386337 L116.114816,40.6386337 C115.955151,40.6386337 115.825663,40.7659146 115.825663,40.9228584 L115.825663,47.3332854 C115.825663,47.4902292 115.955151,47.6169708 116.114816,47.6169708 L116.583388,47.6169708 C116.743602,47.6169708 116.872541,47.4902292 116.872541,47.3332854 L116.872541,40.9228584 C116.872541,40.7659146 116.743602,40.6386337 116.583388,40.6386337" id="Fill-56" fill="#F07814"></path>
        <path d="M122.644033,40.5033169 C121.724449,40.4003056 120.900882,40.6268225 120.253991,41.1645303 L120.253991,40.9229124 C120.253991,40.7654292 120.124503,40.6386876 119.964837,40.6386876 L119.483098,40.6386876 C119.323432,40.6386876 119.193944,40.7654292 119.193944,40.9229124 L119.193944,47.3333393 C119.193944,47.4902831 119.323432,47.617564 119.483098,47.617564 L119.964837,47.617564 C120.124503,47.617564 120.253991,47.4902831 120.253991,47.3333393 L120.253991,43.4620584 C120.253991,42.8617888 120.482241,42.317609 120.888263,41.9616539 C121.270143,41.597609 121.870397,41.430418 122.585874,41.4929798 C122.667078,41.5010697 122.746636,41.4730247 122.806442,41.4190921 C122.866248,41.3662382 122.900815,41.2891146 122.900815,41.2098337 L122.900815,40.7853843 C122.900815,40.6413843 122.790531,40.5194966 122.644033,40.5033169" id="Fill-58" fill="#F07814"></path>
        <path d="M137.7565,38.4102472 L137.25007,38.4102472 C137.135396,38.4102472 137.031147,38.4765843 136.985058,38.5801348 L133.640864,46.0654382 L130.296669,38.5801348 C130.250032,38.4765843 130.146331,38.4102472 130.031109,38.4102472 L129.537847,38.4102472 C129.378182,38.4102472 129.248694,38.5375281 129.248694,38.6944719 L129.248694,47.3328539 C129.248694,47.4903371 129.378182,47.617618 129.537847,47.617618 L130.006418,47.617618 C130.166633,47.617618 130.295572,47.4903371 130.295572,47.3328539 L130.295572,41.1311461 L133.122911,47.4477303 C133.168452,47.5507416 133.272152,47.617618 133.387923,47.617618 L133.906424,47.617618 C134.021098,47.617618 134.125347,47.5502022 134.171436,47.447191 L136.985607,41.136 L136.985607,47.3328539 C136.985607,47.4903371 137.115095,47.617618 137.275309,47.617618 L137.7565,47.617618 C137.916165,47.617618 138.045653,47.4903371 138.045653,47.3328539 L138.045653,38.6944719 C138.045653,38.5375281 137.916165,38.4102472 137.7565,38.4102472" id="Fill-60" fill="#F07814"></path>
        <path d="M141.026622,43.3768989 C141.336077,42.2826067 142.290777,41.5189213 143.404046,41.5189213 C144.513473,41.5189213 145.472014,42.2826067 145.791345,43.3768989 L141.026622,43.3768989 Z M143.404046,40.4764045 C141.450202,40.4764045 139.860132,42.1235056 139.860132,44.1470562 C139.860132,46.1770787 141.450202,47.7680899 143.480312,47.7680899 C145.120311,47.7680899 146.297226,46.9375281 146.794329,45.4301124 C146.82286,45.3432809 146.808046,45.2483596 146.753727,45.1750112 C146.698859,45.1005843 146.612168,45.0574382 146.519441,45.0574382 L146.026179,45.0574382 C145.904921,45.0574382 145.795734,45.1318652 145.754035,45.2435056 C145.38258,46.2347865 144.617722,46.7374382 143.480312,46.7374382 C142.11959,46.7374382 141.063933,45.7537079 140.923471,44.4059326 L146.659354,44.4059326 C146.816825,44.4059326 146.945215,44.2818876 146.948507,44.1260225 C146.962773,43.1832809 146.552362,42.2011685 145.849505,41.4995056 C145.189445,40.8393708 144.320338,40.4764045 143.404046,40.4764045 L143.404046,40.4764045 Z" id="Fill-62" fill="#F07814"></path>
        <path d="M184.203984,43.3768989 C184.513439,42.2826067 185.468139,41.5189213 186.581956,41.5189213 C187.691384,41.5189213 188.649376,42.2826067 188.968707,43.3768989 L184.203984,43.3768989 Z M186.581956,40.4764045 C184.627564,40.4764045 183.038592,42.1235056 183.038592,44.1470562 C183.038592,46.1770787 184.627564,47.7680899 186.657674,47.7680899 C188.298222,47.7680899 189.475137,46.9375281 189.971691,45.4301124 C190.000222,45.3432809 189.985408,45.2483596 189.931089,45.1750112 C189.876221,45.1005843 189.790078,45.0574382 189.697352,45.0574382 L189.203541,45.0574382 C189.082283,45.0574382 188.973645,45.1318652 188.931397,45.2435056 C188.56049,46.2347865 187.795633,46.7374382 186.657674,46.7374382 C185.296952,46.7374382 184.241295,45.7537079 184.101382,44.4059326 L189.836716,44.4059326 C189.994187,44.4059326 190.123126,44.2818876 190.12587,44.1260225 C190.140135,43.1832809 189.729724,42.2011685 189.027416,41.4995056 C188.366807,40.8393708 187.4977,40.4764045 186.581956,40.4764045 L186.581956,40.4764045 Z" id="Fill-64" fill="#F07814"></path>
        <path d="M151.610133,46.7376539 C150.233499,46.7376539 149.113647,45.5759461 149.113647,44.1467326 C149.113647,42.6970247 150.233499,41.5185978 151.610133,41.5185978 C152.987316,41.5185978 154.10662,42.6970247 154.10662,44.1467326 C154.10662,45.5759461 152.987316,46.7376539 151.610133,46.7376539 M154.864893,37.7875416 L154.396322,37.7875416 C154.236108,37.7875416 154.10662,37.9153618 154.10662,38.0723056 L154.10662,41.5730697 C153.464666,40.8811146 152.568126,40.4766202 151.610133,40.4766202 C149.655192,40.4766202 148.066769,42.1226427 148.066769,44.1467326 C148.066769,46.1427775 149.655192,47.767227 151.610133,47.767227 C152.568674,47.767227 153.464666,47.3675865 154.10662,46.6858787 L154.10662,47.3330697 C154.10662,47.4905528 154.236108,47.6178337 154.396322,47.6178337 L154.864893,47.6178337 C155.024558,47.6178337 155.154047,47.4905528 155.154047,47.3330697 L155.154047,38.0723056 C155.154047,37.9153618 155.024558,37.7875416 154.864893,37.7875416" id="Fill-66" fill="#F07814"></path>
        <path d="M158.232845,40.6386337 L157.764274,40.6386337 C157.604608,40.6386337 157.47512,40.7659146 157.47512,40.9228584 L157.47512,47.3332854 C157.47512,47.4902292 157.604608,47.6169708 157.764274,47.6169708 L158.232845,47.6169708 C158.392511,47.6169708 158.521999,47.4902292 158.521999,47.3332854 L158.521999,40.9228584 C158.521999,40.7659146 158.392511,40.6386337 158.232845,40.6386337" id="Fill-68" fill="#F07814"></path>
        <path d="M163.62959,43.3916225 C162.030742,43.1715775 161.745978,42.9288809 161.738296,42.4995775 C161.735004,42.3011056 161.814562,42.1193528 161.974776,41.9597124 C162.279293,41.6549933 162.816998,41.4813303 163.450721,41.4813303 C164.154127,41.4813303 165.055605,41.6814202 165.351343,42.6365663 C165.388104,42.7562966 165.501132,42.8382742 165.628974,42.8382742 L166.109616,42.8382742 C166.197953,42.8382742 166.281352,42.7978247 166.336769,42.730409 C166.390539,42.6619146 166.410841,42.5723865 166.390539,42.4882517 C166.08328,41.2100494 165.006224,40.4771056 163.437004,40.4771056 C161.626366,40.4771056 160.678798,41.4964315 160.678798,42.5098247 C160.709524,44.0075326 162.286426,44.2340494 163.472668,44.4033978 C165.125287,44.6358472 165.474795,45.0247011 165.492353,45.5489258 C165.511008,45.8045663 165.427609,46.0348584 165.255324,46.2144539 C164.918436,46.5569258 164.313792,46.7629483 163.640015,46.7629483 C162.906981,46.7629483 161.637339,46.5860494 161.377266,45.4054652 C161.348734,45.2749483 161.231317,45.1811056 161.094696,45.1811056 L160.626125,45.1811056 C160.542177,45.1811056 160.461522,45.2183191 160.406105,45.2814202 C160.350689,45.3450607 160.327095,45.4291955 160.340812,45.5117124 C160.572903,46.9242067 161.81127,47.767173 163.652635,47.767173 C164.642999,47.767173 165.480831,47.4710831 166.014695,46.9333753 C166.36969,46.5698697 166.566117,46.0494202 166.550205,45.5084764 L166.550205,45.5025438 C166.467903,43.8085213 164.623795,43.5377798 163.62959,43.3916225" id="Fill-70" fill="#F07814"></path>
        <path d="M178.512489,40.4764045 C177.707578,40.4764045 176.988261,40.7401348 176.446167,41.2185169 L176.446167,38.0726292 C176.446167,37.9151461 176.316679,37.7878652 176.157013,37.7878652 L175.688442,37.7878652 C175.528777,37.7878652 175.39874,37.9151461 175.39874,38.0726292 L175.39874,47.3333933 C175.39874,47.4908764 175.528777,47.617618 175.688442,47.617618 L176.157013,47.617618 C176.316679,47.617618 176.446167,47.4908764 176.446167,47.3333933 L176.446167,43.461573 C176.446167,42.3397753 177.329539,41.4941124 178.49987,41.4941124 C179.734396,41.4941124 180.414208,42.1930787 180.414208,43.461573 L180.414208,47.3333933 C180.414208,47.4908764 180.543697,47.617618 180.703362,47.617618 L181.171385,47.617618 C181.331599,47.617618 181.460538,47.4908764 181.460538,47.3333933 L181.460538,43.461573 C181.460538,41.6208539 180.330809,40.4764045 178.512489,40.4764045" id="Fill-72" fill="#F07814"></path>
        <path d="M206.576562,43.3768989 C206.886017,42.2826067 207.840717,41.5189213 208.954534,41.5189213 C210.062864,41.5189213 211.021405,42.2826067 211.341285,43.3768989 L206.576562,43.3768989 Z M208.954534,40.4764045 C207.000142,40.4764045 205.410072,42.1235056 205.410072,44.1470562 C205.410072,46.1770787 207.000142,47.7680899 209.030252,47.7680899 C210.669702,47.7680899 211.847166,46.9375281 212.344269,45.4301124 C212.3728,45.3432809 212.357986,45.2483596 212.303666,45.1750112 C212.248799,45.1005843 212.162656,45.0574382 212.069929,45.0574382 L211.576119,45.0574382 C211.454861,45.0574382 211.346223,45.1318652 211.303975,45.2435056 C210.932519,46.2347865 210.16821,46.7374382 209.030252,46.7374382 C207.669529,46.7374382 206.613872,45.7537079 206.473959,44.4059326 L212.209294,44.4059326 C212.366764,44.4059326 212.495704,44.2818876 212.497899,44.1260225 C212.512164,43.1827416 212.101753,42.2000899 211.399445,41.4995056 C210.738287,40.8393708 209.870278,40.4764045 208.954534,40.4764045 L208.954534,40.4764045 Z" id="Fill-74" fill="#F07814"></path>
        <path d="M217.299328,40.4764045 C216.493868,40.4764045 215.775099,40.7401348 215.233005,41.2185169 L215.233005,40.9229663 C215.233005,40.7654831 215.103517,40.6382022 214.943852,40.6382022 L214.475829,40.6382022 C214.316164,40.6382022 214.186127,40.7654831 214.186127,40.9229663 L214.186127,47.3333933 C214.186127,47.4908764 214.316164,47.617618 214.475829,47.617618 L214.943852,47.617618 C215.103517,47.617618 215.233005,47.4908764 215.233005,47.3333933 L215.233005,43.461573 C215.233005,42.3397753 216.116377,41.4941124 217.286708,41.4941124 C218.520686,41.4941124 219.201047,42.1930787 219.201047,43.461573 L219.201047,47.3333933 C219.201047,47.4908764 219.330535,47.617618 219.4902,47.617618 L219.958223,47.617618 C220.118437,47.617618 220.247376,47.4908764 220.247376,47.3333933 L220.247376,43.461573 C220.247376,41.6208539 219.117648,40.4764045 217.299328,40.4764045" id="Fill-76" fill="#F07814"></path>
        <path d="M225.062303,40.6386337 L223.591296,40.6386337 L223.591296,39.5529708 C223.591296,39.396027 223.461808,39.2687461 223.302143,39.2687461 L222.833571,39.2687461 C222.673357,39.2687461 222.543869,39.396027 222.543869,39.5529708 L222.543869,40.6386337 L221.946359,40.6386337 C221.786693,40.6386337 221.657205,40.7659146 221.657205,40.9228584 L221.657205,41.3834427 C221.657205,41.5409258 221.786693,41.6676674 221.946359,41.6676674 L222.543869,41.6676674 L222.543869,45.1177348 C222.543869,45.9639371 222.807235,46.6483416 223.304886,47.0954427 C223.696642,47.4470831 224.212949,47.6293753 224.812105,47.6293753 C224.902637,47.6293753 224.994267,47.6250607 225.088091,47.6164315 C225.237331,47.6034876 225.351456,47.4805213 225.351456,47.3332854 L225.351456,46.9104539 C225.351456,46.832791 225.319633,46.758364 225.26257,46.7049708 C225.206605,46.6510382 225.134728,46.6300045 225.05078,46.6262292 C224.593183,46.6451056 224.230506,46.5393978 223.991283,46.3139596 C223.725722,46.0642517 223.591296,45.6613753 223.591296,45.1177348 L223.591296,41.6676674 L225.062303,41.6676674 C225.221968,41.6676674 225.351456,41.5409258 225.351456,41.3834427 L225.351456,40.9228584 C225.351456,40.7659146 225.221968,40.6386337 225.062303,40.6386337" id="Fill-78" fill="#F07814"></path>
        <path d="M230.57855,40.5033169 C229.660611,40.4024629 228.83485,40.6268225 228.188507,41.1645303 L228.188507,40.9229124 C228.188507,40.7654292 228.05847,40.6386876 227.898805,40.6386876 L227.417065,40.6386876 C227.2574,40.6386876 227.127912,40.7654292 227.127912,40.9229124 L227.127912,47.3333393 C227.127912,47.4902831 227.2574,47.617564 227.417065,47.617564 L227.898805,47.617564 C228.05847,47.617564 228.188507,47.4902831 228.188507,47.3333393 L228.188507,43.4620584 C228.188507,42.8617888 228.41566,42.317609 228.822231,41.9616539 C229.204111,41.597609 229.804913,41.430418 230.52039,41.4929798 C230.601046,41.5010697 230.681153,41.4730247 230.740959,41.4190921 C230.800216,41.3662382 230.834783,41.2891146 230.834783,41.2098337 L230.834783,40.7853843 C230.834783,40.6413843 230.724498,40.5194966 230.57855,40.5033169" id="Fill-80" fill="#F07814"></path>
        <path d="M203.896927,45.7385528 C203.788289,45.6323056 203.614906,45.6382382 203.506268,45.7434067 C202.857182,46.3684854 202.007279,46.7379236 201.100862,46.7379236 C199.123974,46.7379236 197.51525,45.0509124 197.51525,42.9761258 C197.51525,40.9094292 199.123974,39.2278112 201.100862,39.2278112 C202.079156,39.2278112 202.988316,39.631227 203.643438,40.3129348 C203.751527,40.4261933 203.930396,40.4364404 204.041778,40.3269573 L204.401711,39.9731596 C204.504863,39.8723056 204.512544,39.7056539 204.412136,39.601564 C203.566623,38.7181483 202.391354,38.1987775 201.100862,38.1987775 C198.546216,38.1987775 196.358636,40.3420584 196.358636,42.9761258 C196.358636,45.6177438 198.546216,47.7674966 201.100862,47.7674966 C202.288751,47.7674966 203.411895,47.2821034 204.256311,46.4698787 C204.363304,46.3668674 204.359463,46.1937438 204.253019,46.0885753 L203.896927,45.7385528 Z" id="Fill-82" fill="#F07814"></path>
        <path d="M173.614054,45.900782 C173.503221,45.7918382 173.317219,45.7939955 173.217908,45.9126472 C172.782258,46.4374112 172.131525,46.7383551 171.364473,46.7383551 C169.987839,46.7383551 168.868535,45.5750292 168.868535,44.1468944 C168.868535,42.6977258 169.987839,41.5182202 171.364473,41.5182202 C172.11287,41.5182202 172.758116,41.8213213 173.201448,42.3493213 C173.301307,42.467973 173.486212,42.4685124 173.597045,42.3595685 L173.964111,41.9992989 C174.062324,41.9016809 174.075493,41.7431191 173.984961,41.6384899 C173.35014,40.9017708 172.422873,40.4762427 171.364473,40.4762427 C169.410629,40.4762427 167.820011,42.1233438 167.820011,44.1468944 C167.820011,46.1429393 169.410629,47.7673888 171.364473,47.7673888 C172.430555,47.7673888 173.357273,47.3429393 173.989899,46.6089169 C174.079882,46.504827 174.066714,46.3457258 173.9685,46.2491865 L173.614054,45.900782 Z" id="Fill-84" fill="#F07814"></path>
        <path d="M10.4856815,7.35662022 L10.4856815,24.1345079 C10.4856815,30.5692045 11.6274811,33.5209348 13.7799461,35.2737438 C15.0040474,36.2698787 16.5546124,36.9364854 18.4096937,37.5739685 L18.4096937,22.5931146 C18.3312327,16.350418 15.235041,10.8228674 10.4856815,7.35662022" id="Fill-86" fill="#E6000F"></path>
        <path d="M28.7852006,7.35662022 L28.7852006,24.1345079 C28.7852006,30.5692045 27.6434011,33.5209348 25.4909361,35.2737438 C24.2668347,36.2698787 22.7168185,36.9364854 20.8611884,37.5739685 L20.8611884,22.5931146 C20.9401981,16.350418 24.0352925,10.8228674 28.7852006,7.35662022" id="Fill-88" fill="#E6000F"></path>
        <path d="M39.2711016,28.159982 L39.270553,3.60663371 C36.4234612,3.77382472 33.7415216,4.53858876 31.3503815,5.7747236 L31.3503815,26.0474427 C31.3503815,39.5073978 21.4664904,39.9749933 19.6355508,39.9749933 C17.8046113,39.9749933 7.92017146,39.4869034 7.92017146,26.0474427 L7.92017146,5.7747236 C5.52903137,4.53858876 2.84709177,3.77382472 -3.55271368e-15,3.60663371 L-3.55271368e-15,28.159982 C-3.55271368e-15,39.3056899 8.80957901,47.7731056 19.6355508,47.7731056 C30.4615226,47.7731056 39.2711016,39.3056899 39.2711016,28.159982 Z" id="Fill-90" fill="#F07814"></path>
        <path d="M19.6355508,13.3882247 C21.0275477,10.6187865 23.005533,8.18588764 25.4136821,6.24808989 C23.976145,3.76988764 22.0014517,1.63307865 19.6355508,7.10542736e-15 C17.2696499,1.63307865 15.2949567,3.76988764 13.8568708,6.24808989 C16.2655686,8.18588764 18.2435539,10.6187865 19.6355508,13.3882247" id="Fill-92" fill="#003741"></path>
    </g>
</svg>