<?xml version="1.0" encoding="UTF-8"?>
<svg width="48px" height="48px" viewBox="0 0 48 48" version="1.1" xmlns="http://www.w3.org/2000/svg" xmlns:xlink="http://www.w3.org/1999/xlink">
    <!-- Generator: Sketch 53.2 (72643) - https://sketchapp.com -->
    <title>open-subnavigation</title>
    <desc>Created with Sketch.</desc>
    <defs>
        <path d="M25.6,21.8505051 C25.6,22.2545455 25.4383838,22.6585859 25.1474747,22.9494949 L22.9494949,25.1474747 C22.6585859,25.4383838 22.2545455,25.6 21.8505051,25.6 C21.4464646,25.6 21.0424242,25.4383838 20.7515152,25.1474747 L16,20.3959596 L11.2484848,25.1474747 C10.9575758,25.4383838 10.5535354,25.6 10.1494949,25.6 C9.74545455,25.6 9.34141414,25.4383838 9.05050505,25.1474747 L6.85252525,22.9494949 C6.56161616,22.6585859 6.4,22.2545455 6.4,21.8505051 C6.4,21.4464646 6.56161616,21.0424242 6.85252525,20.7515152 L11.6040404,16 L6.85252525,11.2484848 C6.56161616,10.9575758 6.4,10.5535354 6.4,10.1494949 C6.4,9.74545455 6.56161616,9.34141414 6.85252525,9.05050505 L9.05050505,6.85252525 C9.34141414,6.56161616 9.74545455,6.4 10.1494949,6.4 C10.5535354,6.4 10.9575758,6.56161616 11.2484848,6.85252525 L16,11.6040404 L20.7515152,6.85252525 C21.0424242,6.56161616 21.4464646,6.4 21.8505051,6.4 C22.2545455,6.4 22.6585859,6.56161616 22.9494949,6.85252525 L25.1474747,9.05050505 C25.4383838,9.34141414 25.6,9.74545455 25.6,10.1494949 C25.6,10.5535354 25.4383838,10.9575758 25.1474747,11.2484848 L20.3959596,16 L25.1474747,20.7515152 C25.4383838,21.0424242 25.6,21.4464646 25.6,21.8505051 Z" id="path-1"></path>
    </defs>
    <g id="open-subnavigation" stroke="none" stroke-width="1" fill="none" fill-rule="evenodd">
        <circle id="Oval" fill="#FFFFFF" cx="24" cy="24" r="20"></circle>
        <g id="icon/functional/close" transform="translate(24.000000, 24.000000) rotate(45.000000) translate(-24.000000, -24.000000) translate(8.000000, 8.000000)">
            <mask id="mask-2" fill="white">
                <use xlink:href="#path-1"></use>
            </mask>
            <use id="close" fill="#D14200" fill-rule="evenodd" xlink:href="#path-1"></use>
        </g>
    </g>
</svg>