<?xml version="1.0" encoding="UTF-8"?>
<svg width="24px" height="24px" viewBox="0 0 24 24" version="1.1" xmlns="http://www.w3.org/2000/svg" xmlns:xlink="http://www.w3.org/1999/xlink">
    <!-- Generator: Sketch 53.2 (72643) - https://sketchapp.com -->
    <title>icon/careCTRL/24px</title>
    <desc>Created with Sketch.</desc>
    <g id="icon/careCTRL/24px" stroke="none" stroke-width="1" fill="none" fill-rule="evenodd">
        <path d="M13.7952887,18.5578031 L13.7952887,20 L11.2039432,20 L11.2039432,18.5578031 C10.4553834,18.3976443 9.75752144,18.1003713 9.13532198,17.6959416 L8.11368583,18.7191141 L6.27934964,16.8866982 L7.30405838,15.8650621 C6.89924465,15.2428626 6.60235565,14.5446166 6.4421969,13.7956728 L5,13.7956728 L5,11.2043272 L6.44142875,11.2043272 C6.6015875,10.4557675 6.89847651,9.75828959 7.30290616,9.13609013 L6.28011778,8.11291768 L8.11253361,6.28088593 L9.13532198,7.30329023 C9.75752144,6.89886058 10.4549994,6.6015875 11.2039432,6.44142875 L11.2039432,5 L13.7964409,5 L13.7964409,6.44181283 C14.5450006,6.60197158 15.2428626,6.89886058 15.8650621,7.30329023 L16.8870823,6.28011778 L18.7202663,8.11253361 L17.6963257,9.13493791 C18.1007553,9.75713737 18.3980284,10.4549994 18.5581872,11.2039432 L20,11.2039432 L20,13.7956728 L18.5578031,13.7956728 C18.3976443,14.5442325 18.1007553,15.2420945 17.6959416,15.8642939 L18.71873,16.8870823 L16.8866982,18.7194981 L15.8639099,17.6963257 C15.4488542,17.9659455 14.7593138,18.2531046 13.7952887,18.5578031 Z M9,12.5 C9,14.4298256 10.5701744,16 12.5,16 C14.4298256,16 16,14.4298256 16,12.5 C16,10.5701744 14.4298256,9 12.5,9 C10.5701744,9 9,10.5701744 9,12.5 Z" id="Combined-Shape" fill="#003741"></path>
    </g>
</svg>