<?xml version="1.0" encoding="UTF-8"?>
<svg width="24px" height="24px" viewBox="0 0 24 24" version="1.1" xmlns="http://www.w3.org/2000/svg" xmlns:xlink="http://www.w3.org/1999/xlink">
    <!-- Generator: Sketch 53.2 (72643) - https://sketchapp.com -->
    <title>icon/careCTRL/24px</title>
    <desc>Created with Sketch.</desc>
    <g id="icon/careCTRL/24px" stroke="none" stroke-width="1" fill="none" fill-rule="evenodd">
        <g id="catalogus" transform="translate(1.000000, 0.000000)">
            <path d="M20,3.5 L17.7285714,3.5 L17.7285714,2 C17.7285714,1.17157288 17.0569986,0.5 16.2285714,0.5 L2,0.5 C1.17157288,0.5 0.5,1.17157288 0.5,2 L0.5,22 C0.5,22.8284271 1.17157288,23.5 2,23.5 L20,23.5 C20.8284271,23.5 21.5,22.8284271 21.5,22 L21.5,5 C21.5,4.17157288 20.8284271,3.5 20,3.5 Z" id="Path" stroke="#003741"></path>
            <path d="M17.2,4 L5.2,4 C4.64771525,4 4.2,3.55228475 4.2,3 L4.2,3 C4.2,2.44771525 4.64771525,2 5.2,2 L17.2,2 L17.2,4 Z" id="Path" fill="#003741"></path>
        </g>
        <path d="M12.7952887,19.5578031 L12.7952887,21 L10.2039432,21 L10.2039432,19.5578031 C9.45538343,19.3976443 8.75752144,19.1003713 8.13532198,18.6959416 L7.11368583,19.7191141 L5.27934964,17.8866982 L6.30405838,16.8650621 C5.89924465,16.2428626 5.60235565,15.5446166 5.4421969,14.7956728 L4,14.7956728 L4,12.2043272 L5.44142875,12.2043272 C5.6015875,11.4557675 5.89847651,10.7582896 6.30290616,10.1360901 L5.28011778,9.11291768 L7.11253361,7.28088593 L8.13532198,8.30329023 C8.75752144,7.89886058 9.45499936,7.6015875 10.2039432,7.44142875 L10.2039432,6 L12.7964409,6 L12.7964409,7.44181283 C13.5450006,7.60197158 14.2428626,7.89886058 14.8650621,8.30329023 L15.8870823,7.28011778 L17.7202663,9.11253361 L16.6963257,10.1349379 C17.1007553,10.7571374 17.3980284,11.4549994 17.5581872,12.2039432 L19,12.2039432 L19,14.7956728 L17.5578031,14.7956728 C17.3976443,15.5442325 17.1007553,16.2420945 16.6959416,16.8642939 L17.71873,17.8870823 L15.8866982,19.7194981 L14.8639099,18.6963257 C14.4488542,18.9659455 13.7593138,19.2531046 12.7952887,19.5578031 Z M8,13.5 C8,15.4298256 9.57017435,17 11.5,17 C13.4298256,17 15,15.4298256 15,13.5 C15,11.5701744 13.4298256,10 11.5,10 C9.57017435,10 8,11.5701744 8,13.5 Z" id="Combined-Shape" fill="#ED7921"></path>
    </g>
</svg>